<?xml version="1.0" encoding="utf-8" standalone="no"?>
<!DOCTYPE svg PUBLIC "-//W3C//DTD SVG 1.1//EN"
  "http://www.w3.org/Graphics/SVG/1.1/DTD/svg11.dtd">
<svg xmlns:xlink="http://www.w3.org/1999/xlink" width="576pt" height="360pt" viewBox="0 0 576 360" xmlns="http://www.w3.org/2000/svg" version="1.1">
 <metadata>
  <rdf:RDF xmlns:dc="http://purl.org/dc/elements/1.1/" xmlns:cc="http://creativecommons.org/ns#" xmlns:rdf="http://www.w3.org/1999/02/22-rdf-syntax-ns#">
   <cc:Work>
    <dc:type rdf:resource="http://purl.org/dc/dcmitype/StillImage"/>
    <dc:date>2026-02-28T10:59:37.260329</dc:date>
    <dc:format>image/svg+xml</dc:format>
    <dc:creator>
     <cc:Agent>
      <dc:title>Matplotlib v3.10.7, https://matplotlib.org/</dc:title>
     </cc:Agent>
    </dc:creator>
   </cc:Work>
  </rdf:RDF>
 </metadata>
 <defs>
  <style type="text/css">*{stroke-linejoin: round; stroke-linecap: butt}</style>
 </defs>
 <g id="figure_1">
  <g id="patch_1">
   <path d="M 0 360 
L 576 360 
L 576 0 
L 0 0 
z
" style="fill: #ffffff"/>
  </g>
  <g id="axes_1">
   <g id="patch_2">
    <path d="M 62.3 318.04 
L 565.2 318.04 
L 565.2 26.88 
L 62.3 26.88 
z
" style="fill: #ffffff"/>
   </g>
   <g id="matplotlib.axis_1">
    <g id="xtick_1">
     <g id="line2d_1">
      <defs>
       <path id="m26f7b4f5fb" d="M 0 0 
L 0 3.5 
" style="stroke: #000000; stroke-width: 0.8"/>
      </defs>
      <g>
       <use xlink:href="#m26f7b4f5fb" x="84.119555" y="318.04" style="stroke: #000000; stroke-width: 0.8"/>
      </g>
     </g>
     <g id="text_1">
      <!-- 0 -->
      <g transform="translate(80.938305 332.638438) scale(0.1 -0.1)">
       <defs>
        <path id="DejaVuSans-30" d="M 2034 4250 
Q 1547 4250 1301 3770 
Q 1056 3291 1056 2328 
Q 1056 1369 1301 889 
Q 1547 409 2034 409 
Q 2525 409 2770 889 
Q 3016 1369 3016 2328 
Q 3016 3291 2770 3770 
Q 2525 4250 2034 4250 
z
M 2034 4750 
Q 2819 4750 3233 4129 
Q 3647 3509 3647 2328 
Q 3647 1150 3233 529 
Q 2819 -91 2034 -91 
Q 1250 -91 836 529 
Q 422 1150 422 2328 
Q 422 3509 836 4129 
Q 1250 4750 2034 4750 
z
" transform="scale(0.015625)"/>
       </defs>
       <use xlink:href="#DejaVuSans-30"/>
      </g>
     </g>
    </g>
    <g id="xtick_2">
     <g id="line2d_2">
      <g>
       <use xlink:href="#m26f7b4f5fb" x="160.556953" y="318.04" style="stroke: #000000; stroke-width: 0.8"/>
      </g>
     </g>
     <g id="text_2">
      <!-- 50 -->
      <g transform="translate(154.194453 332.638438) scale(0.1 -0.1)">
       <defs>
        <path id="DejaVuSans-35" d="M 691 4666 
L 3169 4666 
L 3169 4134 
L 1269 4134 
L 1269 2991 
Q 1406 3038 1543 3061 
Q 1681 3084 1819 3084 
Q 2600 3084 3056 2656 
Q 3513 2228 3513 1497 
Q 3513 744 3044 326 
Q 2575 -91 1722 -91 
Q 1428 -91 1123 -41 
Q 819 9 494 109 
L 494 744 
Q 775 591 1075 516 
Q 1375 441 1709 441 
Q 2250 441 2565 725 
Q 2881 1009 2881 1497 
Q 2881 1984 2565 2268 
Q 2250 2553 1709 2553 
Q 1456 2553 1204 2497 
Q 953 2441 691 2322 
L 691 4666 
z
" transform="scale(0.015625)"/>
       </defs>
       <use xlink:href="#DejaVuSans-35"/>
       <use xlink:href="#DejaVuSans-30" transform="translate(63.623047 0)"/>
      </g>
     </g>
    </g>
    <g id="xtick_3">
     <g id="line2d_3">
      <g>
       <use xlink:href="#m26f7b4f5fb" x="236.994352" y="318.04" style="stroke: #000000; stroke-width: 0.8"/>
      </g>
     </g>
     <g id="text_3">
      <!-- 100 -->
      <g transform="translate(227.450602 332.638438) scale(0.1 -0.1)">
       <defs>
        <path id="DejaVuSans-31" d="M 794 531 
L 1825 531 
L 1825 4091 
L 703 3866 
L 703 4441 
L 1819 4666 
L 2450 4666 
L 2450 531 
L 3481 531 
L 3481 0 
L 794 0 
L 794 531 
z
" transform="scale(0.015625)"/>
       </defs>
       <use xlink:href="#DejaVuSans-31"/>
       <use xlink:href="#DejaVuSans-30" transform="translate(63.623047 0)"/>
       <use xlink:href="#DejaVuSans-30" transform="translate(127.246094 0)"/>
      </g>
     </g>
    </g>
    <g id="xtick_4">
     <g id="line2d_4">
      <g>
       <use xlink:href="#m26f7b4f5fb" x="313.431751" y="318.04" style="stroke: #000000; stroke-width: 0.8"/>
      </g>
     </g>
     <g id="text_4">
      <!-- 150 -->
      <g transform="translate(303.888001 332.638438) scale(0.1 -0.1)">
       <use xlink:href="#DejaVuSans-31"/>
       <use xlink:href="#DejaVuSans-35" transform="translate(63.623047 0)"/>
       <use xlink:href="#DejaVuSans-30" transform="translate(127.246094 0)"/>
      </g>
     </g>
    </g>
    <g id="xtick_5">
     <g id="line2d_5">
      <g>
       <use xlink:href="#m26f7b4f5fb" x="389.86915" y="318.04" style="stroke: #000000; stroke-width: 0.8"/>
      </g>
     </g>
     <g id="text_5">
      <!-- 200 -->
      <g transform="translate(380.3254 332.638438) scale(0.1 -0.1)">
       <defs>
        <path id="DejaVuSans-32" d="M 1228 531 
L 3431 531 
L 3431 0 
L 469 0 
L 469 531 
Q 828 903 1448 1529 
Q 2069 2156 2228 2338 
Q 2531 2678 2651 2914 
Q 2772 3150 2772 3378 
Q 2772 3750 2511 3984 
Q 2250 4219 1831 4219 
Q 1534 4219 1204 4116 
Q 875 4013 500 3803 
L 500 4441 
Q 881 4594 1212 4672 
Q 1544 4750 1819 4750 
Q 2544 4750 2975 4387 
Q 3406 4025 3406 3419 
Q 3406 3131 3298 2873 
Q 3191 2616 2906 2266 
Q 2828 2175 2409 1742 
Q 1991 1309 1228 531 
z
" transform="scale(0.015625)"/>
       </defs>
       <use xlink:href="#DejaVuSans-32"/>
       <use xlink:href="#DejaVuSans-30" transform="translate(63.623047 0)"/>
       <use xlink:href="#DejaVuSans-30" transform="translate(127.246094 0)"/>
      </g>
     </g>
    </g>
    <g id="xtick_6">
     <g id="line2d_6">
      <g>
       <use xlink:href="#m26f7b4f5fb" x="466.306549" y="318.04" style="stroke: #000000; stroke-width: 0.8"/>
      </g>
     </g>
     <g id="text_6">
      <!-- 250 -->
      <g transform="translate(456.762799 332.638438) scale(0.1 -0.1)">
       <use xlink:href="#DejaVuSans-32"/>
       <use xlink:href="#DejaVuSans-35" transform="translate(63.623047 0)"/>
       <use xlink:href="#DejaVuSans-30" transform="translate(127.246094 0)"/>
      </g>
     </g>
    </g>
    <g id="xtick_7">
     <g id="line2d_7">
      <g>
       <use xlink:href="#m26f7b4f5fb" x="542.743948" y="318.04" style="stroke: #000000; stroke-width: 0.8"/>
      </g>
     </g>
     <g id="text_7">
      <!-- 300 -->
      <g transform="translate(533.200198 332.638438) scale(0.1 -0.1)">
       <defs>
        <path id="DejaVuSans-33" d="M 2597 2516 
Q 3050 2419 3304 2112 
Q 3559 1806 3559 1356 
Q 3559 666 3084 287 
Q 2609 -91 1734 -91 
Q 1441 -91 1130 -33 
Q 819 25 488 141 
L 488 750 
Q 750 597 1062 519 
Q 1375 441 1716 441 
Q 2309 441 2620 675 
Q 2931 909 2931 1356 
Q 2931 1769 2642 2001 
Q 2353 2234 1838 2234 
L 1294 2234 
L 1294 2753 
L 1863 2753 
Q 2328 2753 2575 2939 
Q 2822 3125 2822 3475 
Q 2822 3834 2567 4026 
Q 2313 4219 1838 4219 
Q 1578 4219 1281 4162 
Q 984 4106 628 3988 
L 628 4550 
Q 988 4650 1302 4700 
Q 1616 4750 1894 4750 
Q 2613 4750 3031 4423 
Q 3450 4097 3450 3541 
Q 3450 3153 3228 2886 
Q 3006 2619 2597 2516 
z
" transform="scale(0.015625)"/>
       </defs>
       <use xlink:href="#DejaVuSans-33"/>
       <use xlink:href="#DejaVuSans-30" transform="translate(63.623047 0)"/>
       <use xlink:href="#DejaVuSans-30" transform="translate(127.246094 0)"/>
      </g>
     </g>
    </g>
    <g id="text_8">
     <!-- time steps (M) -->
     <g transform="translate(277.639844 346.316563) scale(0.1 -0.1)">
      <defs>
       <path id="DejaVuSans-74" d="M 1172 4494 
L 1172 3500 
L 2356 3500 
L 2356 3053 
L 1172 3053 
L 1172 1153 
Q 1172 725 1289 603 
Q 1406 481 1766 481 
L 2356 481 
L 2356 0 
L 1766 0 
Q 1100 0 847 248 
Q 594 497 594 1153 
L 594 3053 
L 172 3053 
L 172 3500 
L 594 3500 
L 594 4494 
L 1172 4494 
z
" transform="scale(0.015625)"/>
       <path id="DejaVuSans-69" d="M 603 3500 
L 1178 3500 
L 1178 0 
L 603 0 
L 603 3500 
z
M 603 4863 
L 1178 4863 
L 1178 4134 
L 603 4134 
L 603 4863 
z
" transform="scale(0.015625)"/>
       <path id="DejaVuSans-6d" d="M 3328 2828 
Q 3544 3216 3844 3400 
Q 4144 3584 4550 3584 
Q 5097 3584 5394 3201 
Q 5691 2819 5691 2113 
L 5691 0 
L 5113 0 
L 5113 2094 
Q 5113 2597 4934 2840 
Q 4756 3084 4391 3084 
Q 3944 3084 3684 2787 
Q 3425 2491 3425 1978 
L 3425 0 
L 2847 0 
L 2847 2094 
Q 2847 2600 2669 2842 
Q 2491 3084 2119 3084 
Q 1678 3084 1418 2786 
Q 1159 2488 1159 1978 
L 1159 0 
L 581 0 
L 581 3500 
L 1159 3500 
L 1159 2956 
Q 1356 3278 1631 3431 
Q 1906 3584 2284 3584 
Q 2666 3584 2933 3390 
Q 3200 3197 3328 2828 
z
" transform="scale(0.015625)"/>
       <path id="DejaVuSans-65" d="M 3597 1894 
L 3597 1613 
L 953 1613 
Q 991 1019 1311 708 
Q 1631 397 2203 397 
Q 2534 397 2845 478 
Q 3156 559 3463 722 
L 3463 178 
Q 3153 47 2828 -22 
Q 2503 -91 2169 -91 
Q 1331 -91 842 396 
Q 353 884 353 1716 
Q 353 2575 817 3079 
Q 1281 3584 2069 3584 
Q 2775 3584 3186 3129 
Q 3597 2675 3597 1894 
z
M 3022 2063 
Q 3016 2534 2758 2815 
Q 2500 3097 2075 3097 
Q 1594 3097 1305 2825 
Q 1016 2553 972 2059 
L 3022 2063 
z
" transform="scale(0.015625)"/>
       <path id="DejaVuSans-20" transform="scale(0.015625)"/>
       <path id="DejaVuSans-73" d="M 2834 3397 
L 2834 2853 
Q 2591 2978 2328 3040 
Q 2066 3103 1784 3103 
Q 1356 3103 1142 2972 
Q 928 2841 928 2578 
Q 928 2378 1081 2264 
Q 1234 2150 1697 2047 
L 1894 2003 
Q 2506 1872 2764 1633 
Q 3022 1394 3022 966 
Q 3022 478 2636 193 
Q 2250 -91 1575 -91 
Q 1294 -91 989 -36 
Q 684 19 347 128 
L 347 722 
Q 666 556 975 473 
Q 1284 391 1588 391 
Q 1994 391 2212 530 
Q 2431 669 2431 922 
Q 2431 1156 2273 1281 
Q 2116 1406 1581 1522 
L 1381 1569 
Q 847 1681 609 1914 
Q 372 2147 372 2553 
Q 372 3047 722 3315 
Q 1072 3584 1716 3584 
Q 2034 3584 2315 3537 
Q 2597 3491 2834 3397 
z
" transform="scale(0.015625)"/>
       <path id="DejaVuSans-70" d="M 1159 525 
L 1159 -1331 
L 581 -1331 
L 581 3500 
L 1159 3500 
L 1159 2969 
Q 1341 3281 1617 3432 
Q 1894 3584 2278 3584 
Q 2916 3584 3314 3078 
Q 3713 2572 3713 1747 
Q 3713 922 3314 415 
Q 2916 -91 2278 -91 
Q 1894 -91 1617 61 
Q 1341 213 1159 525 
z
M 3116 1747 
Q 3116 2381 2855 2742 
Q 2594 3103 2138 3103 
Q 1681 3103 1420 2742 
Q 1159 2381 1159 1747 
Q 1159 1113 1420 752 
Q 1681 391 2138 391 
Q 2594 391 2855 752 
Q 3116 1113 3116 1747 
z
" transform="scale(0.015625)"/>
       <path id="DejaVuSans-28" d="M 1984 4856 
Q 1566 4138 1362 3434 
Q 1159 2731 1159 2009 
Q 1159 1288 1364 580 
Q 1569 -128 1984 -844 
L 1484 -844 
Q 1016 -109 783 600 
Q 550 1309 550 2009 
Q 550 2706 781 3412 
Q 1013 4119 1484 4856 
L 1984 4856 
z
" transform="scale(0.015625)"/>
       <path id="DejaVuSans-4d" d="M 628 4666 
L 1569 4666 
L 2759 1491 
L 3956 4666 
L 4897 4666 
L 4897 0 
L 4281 0 
L 4281 4097 
L 3078 897 
L 2444 897 
L 1241 4097 
L 1241 0 
L 628 0 
L 628 4666 
z
" transform="scale(0.015625)"/>
       <path id="DejaVuSans-29" d="M 513 4856 
L 1013 4856 
Q 1481 4119 1714 3412 
Q 1947 2706 1947 2009 
Q 1947 1309 1714 600 
Q 1481 -109 1013 -844 
L 513 -844 
Q 928 -128 1133 580 
Q 1338 1288 1338 2009 
Q 1338 2731 1133 3434 
Q 928 4138 513 4856 
z
" transform="scale(0.015625)"/>
      </defs>
      <use xlink:href="#DejaVuSans-74"/>
      <use xlink:href="#DejaVuSans-69" transform="translate(39.208984 0)"/>
      <use xlink:href="#DejaVuSans-6d" transform="translate(66.992188 0)"/>
      <use xlink:href="#DejaVuSans-65" transform="translate(164.404297 0)"/>
      <use xlink:href="#DejaVuSans-20" transform="translate(225.927734 0)"/>
      <use xlink:href="#DejaVuSans-73" transform="translate(257.714844 0)"/>
      <use xlink:href="#DejaVuSans-74" transform="translate(309.814453 0)"/>
      <use xlink:href="#DejaVuSans-65" transform="translate(349.023438 0)"/>
      <use xlink:href="#DejaVuSans-70" transform="translate(410.546875 0)"/>
      <use xlink:href="#DejaVuSans-73" transform="translate(474.023438 0)"/>
      <use xlink:href="#DejaVuSans-20" transform="translate(526.123047 0)"/>
      <use xlink:href="#DejaVuSans-28" transform="translate(557.910156 0)"/>
      <use xlink:href="#DejaVuSans-4d" transform="translate(596.923828 0)"/>
      <use xlink:href="#DejaVuSans-29" transform="translate(683.203125 0)"/>
     </g>
    </g>
   </g>
   <g id="matplotlib.axis_2">
    <g id="ytick_1">
     <g id="line2d_8">
      <defs>
       <path id="m416b1c0225" d="M 0 0 
L -3.5 0 
" style="stroke: #000000; stroke-width: 0.8"/>
      </defs>
      <g>
       <use xlink:href="#m416b1c0225" x="62.3" y="318.04" style="stroke: #000000; stroke-width: 0.8"/>
      </g>
     </g>
     <g id="text_9">
      <!-- 0.0 -->
      <g transform="translate(39.396875 321.839219) scale(0.1 -0.1)">
       <defs>
        <path id="DejaVuSans-2e" d="M 684 794 
L 1344 794 
L 1344 0 
L 684 0 
L 684 794 
z
" transform="scale(0.015625)"/>
       </defs>
       <use xlink:href="#DejaVuSans-30"/>
       <use xlink:href="#DejaVuSans-2e" transform="translate(63.623047 0)"/>
       <use xlink:href="#DejaVuSans-30" transform="translate(95.410156 0)"/>
      </g>
     </g>
    </g>
    <g id="ytick_2">
     <g id="line2d_9">
      <g>
       <use xlink:href="#m416b1c0225" x="62.3" y="262.843791" style="stroke: #000000; stroke-width: 0.8"/>
      </g>
     </g>
     <g id="text_10">
      <!-- 0.2 -->
      <g transform="translate(39.396875 266.64301) scale(0.1 -0.1)">
       <use xlink:href="#DejaVuSans-30"/>
       <use xlink:href="#DejaVuSans-2e" transform="translate(63.623047 0)"/>
       <use xlink:href="#DejaVuSans-32" transform="translate(95.410156 0)"/>
      </g>
     </g>
    </g>
    <g id="ytick_3">
     <g id="line2d_10">
      <g>
       <use xlink:href="#m416b1c0225" x="62.3" y="207.647583" style="stroke: #000000; stroke-width: 0.8"/>
      </g>
     </g>
     <g id="text_11">
      <!-- 0.4 -->
      <g transform="translate(39.396875 211.446802) scale(0.1 -0.1)">
       <defs>
        <path id="DejaVuSans-34" d="M 2419 4116 
L 825 1625 
L 2419 1625 
L 2419 4116 
z
M 2253 4666 
L 3047 4666 
L 3047 1625 
L 3713 1625 
L 3713 1100 
L 3047 1100 
L 3047 0 
L 2419 0 
L 2419 1100 
L 313 1100 
L 313 1709 
L 2253 4666 
z
" transform="scale(0.015625)"/>
       </defs>
       <use xlink:href="#DejaVuSans-30"/>
       <use xlink:href="#DejaVuSans-2e" transform="translate(63.623047 0)"/>
       <use xlink:href="#DejaVuSans-34" transform="translate(95.410156 0)"/>
      </g>
     </g>
    </g>
    <g id="ytick_4">
     <g id="line2d_11">
      <g>
       <use xlink:href="#m416b1c0225" x="62.3" y="152.451374" style="stroke: #000000; stroke-width: 0.8"/>
      </g>
     </g>
     <g id="text_12">
      <!-- 0.6 -->
      <g transform="translate(39.396875 156.250593) scale(0.1 -0.1)">
       <defs>
        <path id="DejaVuSans-36" d="M 2113 2584 
Q 1688 2584 1439 2293 
Q 1191 2003 1191 1497 
Q 1191 994 1439 701 
Q 1688 409 2113 409 
Q 2538 409 2786 701 
Q 3034 994 3034 1497 
Q 3034 2003 2786 2293 
Q 2538 2584 2113 2584 
z
M 3366 4563 
L 3366 3988 
Q 3128 4100 2886 4159 
Q 2644 4219 2406 4219 
Q 1781 4219 1451 3797 
Q 1122 3375 1075 2522 
Q 1259 2794 1537 2939 
Q 1816 3084 2150 3084 
Q 2853 3084 3261 2657 
Q 3669 2231 3669 1497 
Q 3669 778 3244 343 
Q 2819 -91 2113 -91 
Q 1303 -91 875 529 
Q 447 1150 447 2328 
Q 447 3434 972 4092 
Q 1497 4750 2381 4750 
Q 2619 4750 2861 4703 
Q 3103 4656 3366 4563 
z
" transform="scale(0.015625)"/>
       </defs>
       <use xlink:href="#DejaVuSans-30"/>
       <use xlink:href="#DejaVuSans-2e" transform="translate(63.623047 0)"/>
       <use xlink:href="#DejaVuSans-36" transform="translate(95.410156 0)"/>
      </g>
     </g>
    </g>
    <g id="ytick_5">
     <g id="line2d_12">
      <g>
       <use xlink:href="#m416b1c0225" x="62.3" y="97.255166" style="stroke: #000000; stroke-width: 0.8"/>
      </g>
     </g>
     <g id="text_13">
      <!-- 0.8 -->
      <g transform="translate(39.396875 101.054385) scale(0.1 -0.1)">
       <defs>
        <path id="DejaVuSans-38" d="M 2034 2216 
Q 1584 2216 1326 1975 
Q 1069 1734 1069 1313 
Q 1069 891 1326 650 
Q 1584 409 2034 409 
Q 2484 409 2743 651 
Q 3003 894 3003 1313 
Q 3003 1734 2745 1975 
Q 2488 2216 2034 2216 
z
M 1403 2484 
Q 997 2584 770 2862 
Q 544 3141 544 3541 
Q 544 4100 942 4425 
Q 1341 4750 2034 4750 
Q 2731 4750 3128 4425 
Q 3525 4100 3525 3541 
Q 3525 3141 3298 2862 
Q 3072 2584 2669 2484 
Q 3125 2378 3379 2068 
Q 3634 1759 3634 1313 
Q 3634 634 3220 271 
Q 2806 -91 2034 -91 
Q 1263 -91 848 271 
Q 434 634 434 1313 
Q 434 1759 690 2068 
Q 947 2378 1403 2484 
z
M 1172 3481 
Q 1172 3119 1398 2916 
Q 1625 2713 2034 2713 
Q 2441 2713 2670 2916 
Q 2900 3119 2900 3481 
Q 2900 3844 2670 4047 
Q 2441 4250 2034 4250 
Q 1625 4250 1398 4047 
Q 1172 3844 1172 3481 
z
" transform="scale(0.015625)"/>
       </defs>
       <use xlink:href="#DejaVuSans-30"/>
       <use xlink:href="#DejaVuSans-2e" transform="translate(63.623047 0)"/>
       <use xlink:href="#DejaVuSans-38" transform="translate(95.410156 0)"/>
      </g>
     </g>
    </g>
    <g id="ytick_6">
     <g id="line2d_13">
      <g>
       <use xlink:href="#m416b1c0225" x="62.3" y="42.058957" style="stroke: #000000; stroke-width: 0.8"/>
      </g>
     </g>
     <g id="text_14">
      <!-- 1.0 -->
      <g transform="translate(39.396875 45.858176) scale(0.1 -0.1)">
       <use xlink:href="#DejaVuSans-31"/>
       <use xlink:href="#DejaVuSans-2e" transform="translate(63.623047 0)"/>
       <use xlink:href="#DejaVuSans-30" transform="translate(95.410156 0)"/>
      </g>
     </g>
    </g>
    <g id="text_15">
     <!-- % -->
     <g transform="translate(33.317188 177.210781) rotate(-90) scale(0.1 -0.1)">
      <defs>
       <path id="DejaVuSans-25" d="M 4653 2053 
Q 4381 2053 4226 1822 
Q 4072 1591 4072 1178 
Q 4072 772 4226 539 
Q 4381 306 4653 306 
Q 4919 306 5073 539 
Q 5228 772 5228 1178 
Q 5228 1588 5073 1820 
Q 4919 2053 4653 2053 
z
M 4653 2450 
Q 5147 2450 5437 2106 
Q 5728 1763 5728 1178 
Q 5728 594 5436 251 
Q 5144 -91 4653 -91 
Q 4153 -91 3862 251 
Q 3572 594 3572 1178 
Q 3572 1766 3864 2108 
Q 4156 2450 4653 2450 
z
M 1428 4353 
Q 1159 4353 1004 4120 
Q 850 3888 850 3481 
Q 850 3069 1003 2837 
Q 1156 2606 1428 2606 
Q 1700 2606 1854 2837 
Q 2009 3069 2009 3481 
Q 2009 3884 1853 4118 
Q 1697 4353 1428 4353 
z
M 4250 4750 
L 4750 4750 
L 1831 -91 
L 1331 -91 
L 4250 4750 
z
M 1428 4750 
Q 1922 4750 2215 4408 
Q 2509 4066 2509 3481 
Q 2509 2891 2217 2550 
Q 1925 2209 1428 2209 
Q 931 2209 642 2551 
Q 353 2894 353 3481 
Q 353 4063 643 4406 
Q 934 4750 1428 4750 
z
" transform="scale(0.015625)"/>
      </defs>
      <use xlink:href="#DejaVuSans-25"/>
     </g>
    </g>
   </g>
   <g id="line2d_14">
    <path d="M 85.159091 42.058957 
L 112.003587 42.058957 
L 112.997261 58.515281 
L 113.990935 42.058957 
L 114.984609 43.352834 
L 115.794834 45.952072 
L 116.880232 44.77656 
L 117.782181 48.911362 
L 118.913443 69.593746 
L 119.907117 47.182549 
L 120.900791 45.258009 
L 121.894465 63.01746 
L 122.796414 55.172244 
L 123.698363 86.544884 
L 124.462724 43.18308 
L 125.364674 43.705345 
L 126.22076 48.666417 
L 127.718921 42.058957 
L 130.333043 42.058957 
L 131.37258 42.236607 
L 132.641428 42.058957 
L 135.760038 42.058957 
L 136.937161 46.38285 
L 138.02256 42.058957 
L 141.584494 42.058957 
L 142.348856 43.256333 
L 143.525979 42.058957 
L 144.703103 42.058957 
L 145.788502 42.561489 
L 146.828038 47.915038 
L 147.913437 42.058957 
L 152.20917 42.058957 
L 153.294569 45.833678 
L 154.379968 42.756545 
L 155.602954 42.058957 
L 172.648298 42.058957 
L 173.550247 45.761396 
L 174.819096 46.233008 
L 176.042082 66.564462 
L 176.898169 42.058957 
L 178.02943 42.058957 
L 178.977241 44.483378 
L 179.787466 42.718247 
L 180.964589 42.058957 
L 182.860212 42.058957 
L 184.083199 46.091041 
L 185.076873 42.058957 
L 186.575033 51.69775 
L 187.798019 54.153826 
L 188.654106 48.015421 
L 190.595592 89.153692 
L 191.543403 74.394589 
L 193.087426 107.157171 
L 194.126963 80.055712 
L 195.074774 73.440508 
L 196.114311 91.193021 
L 196.924535 118.087857 
L 198.239246 112.819345 
L 199.23292 114.042746 
L 201.403717 161.603456 
L 202.351529 165.293645 
L 203.299341 145.613129 
L 204.568189 126.828667 
L 205.516001 169.643727 
L 206.509675 166.995608 
L 207.411624 168.385374 
L 208.405298 151.082571 
L 209.398972 174.330762 
L 210.255058 167.77284 
L 211.01942 182.442116 
L 212.013094 160.32189 
L 213.006768 175.934628 
L 213.862855 168.438895 
L 214.948253 163.922144 
L 216.308827 140.349257 
L 217.440088 175.976582 
L 219.335711 142.184386 
L 220.512835 175.620694 
L 221.368921 170.630697 
L 222.362595 172.982587 
L 223.402132 174.006268 
L 224.625118 178.891557 
L 225.664654 178.329242 
L 226.566603 154.670444 
L 227.560277 147.54223 
L 228.462226 145.795566 
L 229.593488 160.678053 
L 230.633024 105.085736 
L 231.534973 127.625939 
L 232.57451 106.740785 
L 233.522321 94.559337 
L 234.378408 93.596206 
L 235.326219 88.679625 
L 236.365756 96.332134 
L 237.35943 93.108493 
L 238.307241 79.492641 
L 239.300915 100.348025 
L 240.248727 106.15511 
L 241.242401 110.860145 
L 242.098487 126.759412 
L 243.183886 62.32778 
L 244.17756 64.673909 
L 245.079509 64.34104 
L 246.119046 84.956556 
L 247.020995 131.367585 
L 247.968806 122.771417 
L 248.77903 131.466149 
L 249.772704 133.036929 
L 250.766378 94.093818 
L 251.805915 78.433492 
L 252.570276 57.731215 
L 253.518088 86.783281 
L 254.420037 91.522501 
L 255.872335 115.732697 
L 256.774284 100.077836 
L 258.89922 182.277926 
L 259.709444 169.575479 
L 260.519668 190.629861 
L 261.421617 182.027907 
L 262.415291 180.928558 
L 263.363103 182.816064 
L 264.127464 195.05623 
L 265.167001 188.024746 
L 265.931362 188.351987 
L 267.154349 182.088179 
L 268.377335 176.545747 
L 269.371009 172.720204 
L 270.272958 170.000345 
L 271.174907 181.615244 
L 272.122718 178.894957 
L 273.345705 185.899276 
L 274.339379 203.640653 
L 275.791677 191.083739 
L 276.785351 185.030438 
L 277.6873 188.483942 
L 278.543387 167.359991 
L 279.445336 184.741978 
L 280.301422 174.459845 
L 281.203371 193.984629 
L 282.334633 187.998123 
L 283.190719 172.903946 
L 284.230256 177.356455 
L 285.453242 167.609188 
L 286.355191 171.850856 
L 287.348865 158.411507 
L 288.434264 185.385504 
L 289.29035 182.158837 
L 290.513336 182.544311 
L 291.782185 185.70378 
L 292.684134 170.855156 
L 293.723671 179.731524 
L 294.900794 160.620136 
L 295.848606 150.430674 
L 296.888142 157.183305 
L 297.835954 175.219264 
L 298.69204 181.171717 
L 299.548127 171.296531 
L 300.404214 132.498 
L 301.168575 175.986731 
L 302.162249 181.625823 
L 303.293511 177.387745 
L 304.19546 163.574963 
L 305.418446 147.581609 
L 306.274532 166.068713 
L 307.176482 193.923791 
L 308.078431 163.736266 
L 309.117967 185.429446 
L 309.928191 191.654908 
L 310.692553 192.288136 
L 311.732089 194.487917 
L 312.634038 192.748914 
L 313.994612 190.585908 
L 314.942423 196.818105 
L 316.073685 195.994194 
L 317.067359 172.529818 
L 318.19862 170.969219 
L 319.146431 187.098243 
L 320.690455 171.476947 
L 321.775854 199.03865 
L 322.861252 194.646181 
L 323.854926 175.757844 
L 324.940325 148.765365 
L 325.796412 151.166894 
L 326.881811 153.65084 
L 328.013072 171.267178 
L 328.915021 174.39441 
L 330.092145 197.058826 
L 330.994094 177.40318 
L 332.262942 190.87258 
L 333.394204 199.218422 
L 334.204428 192.114296 
L 335.152239 196.881514 
L 336.100051 183.711903 
L 337.552349 188.425304 
L 338.362573 189.948641 
L 339.356247 209.707718 
L 340.304059 189.206854 
L 341.572907 170.164304 
L 342.520719 208.883469 
L 343.789568 161.255825 
L 344.874966 177.89807 
L 345.776915 201.920292 
L 346.633002 174.062657 
L 347.534951 176.989959 
L 348.528625 153.788291 
L 349.705749 156.984547 
L 350.699423 146.461316 
L 351.601372 164.65537 
L 352.686771 166.372049 
L 353.955619 161.772084 
L 354.765844 131.920341 
L 355.759517 82.436057 
L 357.746865 171.240473 
L 358.740539 133.995567 
L 359.825938 121.948814 
L 360.819612 166.009666 
L 361.721561 142.39797 
L 362.761098 145.243155 
L 363.984084 129.098361 
L 364.977758 130.063581 
L 365.925569 86.414084 
L 366.735793 139.530601 
L 367.821192 162.540245 
L 368.814866 140.232051 
L 370.313027 147.509133 
L 371.169114 112.744291 
L 372.20865 130.850134 
L 373.064737 155.686127 
L 374.058411 133.614871 
L 374.914497 120.131534 
L 376.183346 112.838767 
L 377.039433 114.440628 
L 378.935056 168.292923 
L 380.066317 142.027812 
L 381.151716 179.13282 
L 382.237115 174.828873 
L 383.230788 139.664224 
L 384.316187 151.877777 
L 386.303535 191.096222 
L 387.297209 136.17156 
L 388.42847 140.776026 
L 389.422144 173.893371 
L 390.369956 105.986239 
L 391.455355 141.487322 
L 392.632478 119.344727 
L 393.442703 144.767671 
L 394.344652 98.804603 
L 395.200738 122.403675 
L 396.423725 122.98755 
L 397.417398 127.714412 
L 398.456935 79.366592 
L 399.267159 101.681738 
L 400.031521 92.468509 
L 400.93347 57.95028 
L 401.973006 56.694131 
L 402.920818 42.058957 
L 403.868629 61.776428 
L 404.770578 76.014678 
L 405.71839 44.448589 
L 406.528614 46.040692 
L 407.797463 53.227305 
L 408.928724 63.206668 
L 409.876536 69.61883 
L 410.778485 90.440491 
L 411.588709 58.512561 
L 412.582383 92.687508 
L 413.530194 51.708312 
L 414.523868 74.879388 
L 415.425817 55.67468 
L 417.000403 84.19963 
L 417.902352 127.703843 
L 418.850164 113.170743 
L 419.935563 122.877519 
L 420.929237 125.530121 
L 421.785323 71.793397 
L 422.595547 121.410014 
L 423.772671 151.764138 
L 425.087382 119.014795 
L 425.943469 131.043054 
L 426.753693 171.637259 
L 427.518055 179.724342 
L 428.603454 127.951629 
L 429.688853 130.071529 
L 431.446888 147.26482 
L 432.3947 140.278206 
L 433.250786 136.4504 
L 434.152735 152.140609 
L 435.329859 90.71211 
L 436.231808 172.279361 
L 437.271345 189.492337 
L 438.127431 192.217615 
L 439.166968 168.38148 
L 440.206504 168.69812 
L 441.337765 139.193015 
L 442.285577 122.227335 
L 443.095801 173.438209 
L 444.089475 170.485116 
L 444.945562 149.343772 
L 445.847511 179.102093 
L 447.070497 175.057997 
L 447.880721 168.511368 
L 448.828533 142.171807 
L 449.822207 176.768009 
L 451.18278 124.943316 
L 452.359904 153.27386 
L 453.21599 156.4768 
L 454.163802 154.556625 
L 455.295063 171.771969 
L 456.563912 181.649158 
L 457.695173 153.845083 
L 458.55126 137.049344 
L 459.682521 186.230676 
L 460.722057 193.531173 
L 461.761594 163.288822 
L 462.525956 184.12555 
L 463.382042 191.533563 
L 464.238129 174.275666 
L 465.048353 176.499617 
L 465.996164 209.37336 
L 466.989838 222.661848 
L 467.891788 212.995896 
L 468.793737 212.546837 
L 469.879135 199.59918 
L 471.010397 200.939991 
L 471.958208 199.411674 
L 472.997745 197.481351 
L 474.037281 194.11569 
L 475.076817 198.947806 
L 475.841179 209.013442 
L 476.788991 191.663822 
L 477.828527 189.216558 
L 478.684614 182.213512 
L 479.72415 154.585472 
L 481.75736 191.395657 
L 482.705172 199.267808 
L 483.928158 207.221791 
L 484.921832 218.675965 
L 485.869644 199.364268 
L 486.955042 202.074246 
L 487.994579 203.587419 
L 489.034115 214.849554 
L 490.027789 200.837821 
L 491.067326 206.497544 
L 492.015137 186.033859 
L 493.192261 201.192544 
L 494.185935 202.098673 
L 495.271334 214.616765 
L 496.173283 215.985794 
L 497.029369 225.283069 
L 499.383617 218.257921 
L 500.56074 222.3186 
L 501.692002 200.008164 
L 502.731538 199.068157 
L 503.541762 207.496115 
L 504.489574 198.017612 
L 505.483248 195.904547 
L 506.385197 189.078174 
L 507.195421 196.932909 
L 508.189095 216.775174 
L 509.228631 219.343632 
L 510.31403 211.812775 
L 511.353567 199.182117 
L 512.438966 198.98369 
L 513.570227 200.374287 
L 514.472176 202.701655 
L 515.374125 199.156164 
L 516.138487 198.689786 
L 516.902848 195.920495 
L 517.713073 203.200556 
L 518.660884 193.100197 
L 519.654558 210.728351 
L 520.648232 217.157053 
L 521.596044 232.274079 
L 522.727305 206.700544 
L 524.042016 221.642909 
L 525.081552 204.803549 
L 526.533851 216.412415 
L 527.573387 225.67654 
L 528.567061 215.712892 
L 529.560735 220.758706 
L 530.462684 212.743938 
L 531.364633 220.2592 
L 532.358307 240.597019 
L 533.535431 226.933681 
L 534.896004 224.574791 
L 535.935541 218.651308 
L 536.745765 233.530082 
L 537.831164 221.609166 
L 538.733113 234.57134 
L 539.726787 236.427012 
L 540.628736 226.223988 
L 541.530685 246.371153 
L 542.340909 246.541944 
L 542.340909 246.541944 
" clip-path="url(#p2c5815ad43)" style="fill: none; stroke: #1f77b4; stroke-width: 2; stroke-linecap: square"/>
   </g>
   <g id="line2d_15">
    <path d="M 85.159091 42.058957 
L 112.003587 42.058957 
L 112.997261 152.451374 
L 113.990935 42.058957 
L 114.984609 69.657062 
L 116.880232 69.657062 
L 117.782181 152.451374 
L 118.913443 207.647583 
L 119.907117 124.85327 
L 120.900791 69.657062 
L 121.894465 180.049479 
L 122.796414 97.255166 
L 123.698363 207.647583 
L 124.462724 97.255166 
L 125.364674 97.255166 
L 126.22076 152.451374 
L 127.718921 42.058957 
L 128.575008 42.058957 
L 129.431094 69.657062 
L 130.333043 42.058957 
L 131.37258 69.657062 
L 132.641428 42.058957 
L 135.760038 42.058957 
L 136.937161 124.85327 
L 138.02256 42.058957 
L 141.584494 42.058957 
L 142.348856 69.657062 
L 143.525979 42.058957 
L 144.703103 42.058957 
L 145.788502 69.657062 
L 146.828038 69.657062 
L 147.913437 42.058957 
L 152.20917 42.058957 
L 153.294569 69.657062 
L 154.379968 69.657062 
L 155.602954 42.058957 
L 172.648298 42.058957 
L 173.550247 69.657062 
L 174.819096 97.255166 
L 176.042082 69.657062 
L 176.898169 42.058957 
L 178.02943 42.058957 
L 178.977241 69.657062 
L 179.787466 69.657062 
L 180.964589 42.058957 
L 182.860212 42.058957 
L 184.083199 69.657062 
L 185.076873 42.058957 
L 186.575033 97.255166 
L 187.798019 97.255166 
L 188.654106 69.657062 
L 189.510193 180.049479 
L 191.543403 180.049479 
L 193.087426 262.843791 
L 194.126963 235.245687 
L 195.074774 180.049479 
L 196.114311 262.843791 
L 196.924535 290.441896 
L 198.239246 262.843791 
L 199.23292 290.441896 
L 200.410044 290.441896 
L 201.403717 318.04 
L 202.351529 318.04 
L 203.299341 292.950814 
L 204.568189 242.772443 
L 205.516001 318.04 
L 207.411624 318.04 
L 208.405298 290.441896 
L 209.398972 318.04 
L 218.296175 318.04 
L 219.335711 292.950814 
L 220.512835 295.04158 
L 221.368921 318.04 
L 222.362595 318.04 
L 223.402132 292.950814 
L 224.625118 318.04 
L 225.664654 318.04 
L 226.566603 290.441896 
L 227.560277 267.861629 
L 228.462226 318.04 
L 229.593488 318.04 
L 230.633024 262.843791 
L 231.534973 318.04 
L 232.57451 318.04 
L 233.522321 235.245687 
L 234.378408 290.441896 
L 235.326219 235.245687 
L 237.35943 290.441896 
L 238.307241 262.843791 
L 239.300915 290.441896 
L 240.248727 262.843791 
L 241.242401 318.04 
L 242.098487 318.04 
L 243.183886 152.451374 
L 244.17756 152.451374 
L 245.079509 180.049479 
L 246.119046 235.245687 
L 247.020995 318.04 
L 248.77903 318.04 
L 249.772704 292.950814 
L 250.766378 262.843791 
L 251.805915 152.451374 
L 252.570276 124.85327 
L 253.518088 142.4157 
L 254.420037 262.843791 
L 256.774284 262.843791 
L 257.951408 318.04 
L 289.29035 318.04 
L 290.513336 298.327068 
L 291.782185 318.04 
L 294.900794 318.04 
L 295.848606 290.441896 
L 296.888142 296.810689 
L 297.835954 318.04 
L 298.69204 318.04 
L 299.548127 300.791185 
L 300.404214 290.441896 
L 301.168575 318.04 
L 302.162249 299.641264 
L 303.293511 318.04 
L 304.19546 318.04 
L 305.418446 292.950814 
L 306.274532 318.04 
L 307.176482 318.04 
L 308.078431 296.810689 
L 309.117967 318.04 
L 317.067359 318.04 
L 318.19862 296.810689 
L 319.146431 281.242528 
L 320.690455 318.04 
L 323.854926 318.04 
L 324.940325 298.327068 
L 325.796412 292.950814 
L 326.881811 272.04316 
L 328.013072 275.581378 
L 328.915021 296.810689 
L 330.092145 318.04 
L 339.356247 318.04 
L 340.304059 298.327068 
L 341.572907 281.242528 
L 342.520719 318.04 
L 343.789568 318.04 
L 344.874966 283.54237 
L 345.776915 318.04 
L 346.633002 298.327068 
L 347.534951 318.04 
L 348.528625 272.04316 
L 349.705749 295.04158 
L 350.699423 267.861629 
L 351.601372 292.950814 
L 352.686771 296.810689 
L 353.955619 318.04 
L 354.765844 262.843791 
L 355.759517 124.85327 
L 356.661467 262.843791 
L 357.746865 258.901205 
L 358.740539 262.843791 
L 359.825938 242.772443 
L 360.819612 290.441896 
L 361.721561 290.441896 
L 362.761098 292.950814 
L 363.984084 262.843791 
L 364.977758 242.772443 
L 365.925569 207.647583 
L 366.735793 292.950814 
L 367.821192 318.04 
L 368.814866 262.843791 
L 370.313027 242.772443 
L 371.169114 235.245687 
L 372.20865 290.441896 
L 373.064737 275.581378 
L 374.914497 217.683257 
L 376.183346 235.245687 
L 377.039433 235.245687 
L 377.987244 272.04316 
L 378.935056 296.810689 
L 380.066317 272.04316 
L 381.151716 318.04 
L 382.237115 318.04 
L 383.230788 292.950814 
L 384.316187 295.04158 
L 385.355724 318.04 
L 386.303535 318.04 
L 387.297209 249.044739 
L 388.42847 254.352067 
L 389.422144 318.04 
L 390.369956 235.245687 
L 391.455355 267.861629 
L 392.632478 292.950814 
L 393.442703 272.04316 
L 394.344652 207.647583 
L 395.200738 207.647583 
L 396.423725 242.772443 
L 397.417398 262.843791 
L 398.456935 152.451374 
L 399.267159 207.647583 
L 400.031521 142.4157 
L 400.93347 97.255166 
L 401.973006 97.255166 
L 402.920818 42.058957 
L 403.868629 124.85327 
L 404.770578 180.049479 
L 405.71839 69.657062 
L 406.528614 69.657062 
L 407.797463 97.255166 
L 409.876536 97.255166 
L 410.778485 180.049479 
L 411.588709 97.255166 
L 412.582383 207.647583 
L 413.530194 97.255166 
L 414.523868 97.255166 
L 415.425817 69.657062 
L 416.190179 124.85327 
L 417.000403 142.4157 
L 417.902352 262.843791 
L 418.850164 192.594072 
L 419.935563 262.843791 
L 420.929237 242.772443 
L 421.785323 180.049479 
L 422.595547 180.049479 
L 423.772671 249.044739 
L 425.087382 242.772443 
L 425.943469 217.683257 
L 426.753693 295.04158 
L 427.518055 296.810689 
L 428.603454 217.683257 
L 429.688853 292.950814 
L 430.636664 249.044739 
L 431.446888 233.122756 
L 432.3947 226.046319 
L 433.250786 267.861629 
L 434.152735 278.614137 
L 435.329859 180.049479 
L 436.231808 318.04 
L 437.271345 318.04 
L 438.127431 299.641264 
L 439.166968 296.810689 
L 440.206504 318.04 
L 441.337765 267.861629 
L 442.285577 242.772443 
L 444.089475 318.04 
L 444.945562 275.581378 
L 445.847511 296.810689 
L 447.070497 299.641264 
L 447.880721 296.810689 
L 448.828533 272.04316 
L 449.822207 296.810689 
L 451.18278 226.046319 
L 452.359904 318.04 
L 453.21599 267.861629 
L 454.163802 272.04316 
L 455.295063 298.327068 
L 456.563912 318.04 
L 457.695173 290.441896 
L 458.55126 292.950814 
L 459.682521 318.04 
L 460.722057 301.805821 
L 461.761594 318.04 
L 464.238129 318.04 
L 465.048353 292.950814 
L 465.996164 318.04 
L 542.340909 318.04 
L 542.340909 318.04 
" clip-path="url(#p2c5815ad43)" style="fill: none; stroke: #ff7f0e; stroke-width: 2; stroke-linecap: square"/>
   </g>
   <g id="patch_3">
    <path d="M 62.3 318.04 
L 62.3 26.88 
" style="fill: none; stroke: #000000; stroke-width: 0.8; stroke-linejoin: miter; stroke-linecap: square"/>
   </g>
   <g id="patch_4">
    <path d="M 565.2 318.04 
L 565.2 26.88 
" style="fill: none; stroke: #000000; stroke-width: 0.8; stroke-linejoin: miter; stroke-linecap: square"/>
   </g>
   <g id="patch_5">
    <path d="M 62.3 318.04 
L 565.2 318.04 
" style="fill: none; stroke: #000000; stroke-width: 0.8; stroke-linejoin: miter; stroke-linecap: square"/>
   </g>
   <g id="patch_6">
    <path d="M 62.3 26.88 
L 565.2 26.88 
" style="fill: none; stroke: #000000; stroke-width: 0.8; stroke-linejoin: miter; stroke-linecap: square"/>
   </g>
   <g id="text_16">
    <!-- Evaluation of level plain -->
    <g transform="translate(241.696562 20.88) scale(0.12 -0.12)">
     <defs>
      <path id="DejaVuSans-45" d="M 628 4666 
L 3578 4666 
L 3578 4134 
L 1259 4134 
L 1259 2753 
L 3481 2753 
L 3481 2222 
L 1259 2222 
L 1259 531 
L 3634 531 
L 3634 0 
L 628 0 
L 628 4666 
z
" transform="scale(0.015625)"/>
      <path id="DejaVuSans-76" d="M 191 3500 
L 800 3500 
L 1894 563 
L 2988 3500 
L 3597 3500 
L 2284 0 
L 1503 0 
L 191 3500 
z
" transform="scale(0.015625)"/>
      <path id="DejaVuSans-61" d="M 2194 1759 
Q 1497 1759 1228 1600 
Q 959 1441 959 1056 
Q 959 750 1161 570 
Q 1363 391 1709 391 
Q 2188 391 2477 730 
Q 2766 1069 2766 1631 
L 2766 1759 
L 2194 1759 
z
M 3341 1997 
L 3341 0 
L 2766 0 
L 2766 531 
Q 2569 213 2275 61 
Q 1981 -91 1556 -91 
Q 1019 -91 701 211 
Q 384 513 384 1019 
Q 384 1609 779 1909 
Q 1175 2209 1959 2209 
L 2766 2209 
L 2766 2266 
Q 2766 2663 2505 2880 
Q 2244 3097 1772 3097 
Q 1472 3097 1187 3025 
Q 903 2953 641 2809 
L 641 3341 
Q 956 3463 1253 3523 
Q 1550 3584 1831 3584 
Q 2591 3584 2966 3190 
Q 3341 2797 3341 1997 
z
" transform="scale(0.015625)"/>
      <path id="DejaVuSans-6c" d="M 603 4863 
L 1178 4863 
L 1178 0 
L 603 0 
L 603 4863 
z
" transform="scale(0.015625)"/>
      <path id="DejaVuSans-75" d="M 544 1381 
L 544 3500 
L 1119 3500 
L 1119 1403 
Q 1119 906 1312 657 
Q 1506 409 1894 409 
Q 2359 409 2629 706 
Q 2900 1003 2900 1516 
L 2900 3500 
L 3475 3500 
L 3475 0 
L 2900 0 
L 2900 538 
Q 2691 219 2414 64 
Q 2138 -91 1772 -91 
Q 1169 -91 856 284 
Q 544 659 544 1381 
z
M 1991 3584 
L 1991 3584 
z
" transform="scale(0.015625)"/>
      <path id="DejaVuSans-6f" d="M 1959 3097 
Q 1497 3097 1228 2736 
Q 959 2375 959 1747 
Q 959 1119 1226 758 
Q 1494 397 1959 397 
Q 2419 397 2687 759 
Q 2956 1122 2956 1747 
Q 2956 2369 2687 2733 
Q 2419 3097 1959 3097 
z
M 1959 3584 
Q 2709 3584 3137 3096 
Q 3566 2609 3566 1747 
Q 3566 888 3137 398 
Q 2709 -91 1959 -91 
Q 1206 -91 779 398 
Q 353 888 353 1747 
Q 353 2609 779 3096 
Q 1206 3584 1959 3584 
z
" transform="scale(0.015625)"/>
      <path id="DejaVuSans-6e" d="M 3513 2113 
L 3513 0 
L 2938 0 
L 2938 2094 
Q 2938 2591 2744 2837 
Q 2550 3084 2163 3084 
Q 1697 3084 1428 2787 
Q 1159 2491 1159 1978 
L 1159 0 
L 581 0 
L 581 3500 
L 1159 3500 
L 1159 2956 
Q 1366 3272 1645 3428 
Q 1925 3584 2291 3584 
Q 2894 3584 3203 3211 
Q 3513 2838 3513 2113 
z
" transform="scale(0.015625)"/>
      <path id="DejaVuSans-66" d="M 2375 4863 
L 2375 4384 
L 1825 4384 
Q 1516 4384 1395 4259 
Q 1275 4134 1275 3809 
L 1275 3500 
L 2222 3500 
L 2222 3053 
L 1275 3053 
L 1275 0 
L 697 0 
L 697 3053 
L 147 3053 
L 147 3500 
L 697 3500 
L 697 3744 
Q 697 4328 969 4595 
Q 1241 4863 1831 4863 
L 2375 4863 
z
" transform="scale(0.015625)"/>
     </defs>
     <use xlink:href="#DejaVuSans-45"/>
     <use xlink:href="#DejaVuSans-76" transform="translate(63.183594 0)"/>
     <use xlink:href="#DejaVuSans-61" transform="translate(122.363281 0)"/>
     <use xlink:href="#DejaVuSans-6c" transform="translate(183.642578 0)"/>
     <use xlink:href="#DejaVuSans-75" transform="translate(211.425781 0)"/>
     <use xlink:href="#DejaVuSans-61" transform="translate(274.804688 0)"/>
     <use xlink:href="#DejaVuSans-74" transform="translate(336.083984 0)"/>
     <use xlink:href="#DejaVuSans-69" transform="translate(375.292969 0)"/>
     <use xlink:href="#DejaVuSans-6f" transform="translate(403.076172 0)"/>
     <use xlink:href="#DejaVuSans-6e" transform="translate(464.257812 0)"/>
     <use xlink:href="#DejaVuSans-20" transform="translate(527.636719 0)"/>
     <use xlink:href="#DejaVuSans-6f" transform="translate(559.423828 0)"/>
     <use xlink:href="#DejaVuSans-66" transform="translate(620.605469 0)"/>
     <use xlink:href="#DejaVuSans-20" transform="translate(655.810547 0)"/>
     <use xlink:href="#DejaVuSans-6c" transform="translate(687.597656 0)"/>
     <use xlink:href="#DejaVuSans-65" transform="translate(715.380859 0)"/>
     <use xlink:href="#DejaVuSans-76" transform="translate(776.904297 0)"/>
     <use xlink:href="#DejaVuSans-65" transform="translate(836.083984 0)"/>
     <use xlink:href="#DejaVuSans-6c" transform="translate(897.607422 0)"/>
     <use xlink:href="#DejaVuSans-20" transform="translate(925.390625 0)"/>
     <use xlink:href="#DejaVuSans-70" transform="translate(957.177734 0)"/>
     <use xlink:href="#DejaVuSans-6c" transform="translate(1020.654297 0)"/>
     <use xlink:href="#DejaVuSans-61" transform="translate(1048.4375 0)"/>
     <use xlink:href="#DejaVuSans-69" transform="translate(1109.716797 0)"/>
     <use xlink:href="#DejaVuSans-6e" transform="translate(1137.5 0)"/>
    </g>
   </g>
   <g id="legend_1">
    <g id="patch_7">
     <path d="M 438.796875 64.23625 
L 558.2 64.23625 
Q 560.2 64.23625 560.2 62.23625 
L 560.2 33.88 
Q 560.2 31.88 558.2 31.88 
L 438.796875 31.88 
Q 436.796875 31.88 436.796875 33.88 
L 436.796875 62.23625 
Q 436.796875 64.23625 438.796875 64.23625 
z
" style="fill: #ffffff; opacity: 0.8; stroke: #cccccc; stroke-linejoin: miter"/>
    </g>
    <g id="line2d_16">
     <path d="M 440.796875 39.978437 
L 450.796875 39.978437 
L 460.796875 39.978437 
" style="fill: none; stroke: #1f77b4; stroke-width: 2; stroke-linecap: square"/>
    </g>
    <g id="text_17">
     <!-- Average progress -->
     <g transform="translate(468.796875 43.478437) scale(0.1 -0.1)">
      <defs>
       <path id="DejaVuSans-41" d="M 2188 4044 
L 1331 1722 
L 3047 1722 
L 2188 4044 
z
M 1831 4666 
L 2547 4666 
L 4325 0 
L 3669 0 
L 3244 1197 
L 1141 1197 
L 716 0 
L 50 0 
L 1831 4666 
z
" transform="scale(0.015625)"/>
       <path id="DejaVuSans-72" d="M 2631 2963 
Q 2534 3019 2420 3045 
Q 2306 3072 2169 3072 
Q 1681 3072 1420 2755 
Q 1159 2438 1159 1844 
L 1159 0 
L 581 0 
L 581 3500 
L 1159 3500 
L 1159 2956 
Q 1341 3275 1631 3429 
Q 1922 3584 2338 3584 
Q 2397 3584 2469 3576 
Q 2541 3569 2628 3553 
L 2631 2963 
z
" transform="scale(0.015625)"/>
       <path id="DejaVuSans-67" d="M 2906 1791 
Q 2906 2416 2648 2759 
Q 2391 3103 1925 3103 
Q 1463 3103 1205 2759 
Q 947 2416 947 1791 
Q 947 1169 1205 825 
Q 1463 481 1925 481 
Q 2391 481 2648 825 
Q 2906 1169 2906 1791 
z
M 3481 434 
Q 3481 -459 3084 -895 
Q 2688 -1331 1869 -1331 
Q 1566 -1331 1297 -1286 
Q 1028 -1241 775 -1147 
L 775 -588 
Q 1028 -725 1275 -790 
Q 1522 -856 1778 -856 
Q 2344 -856 2625 -561 
Q 2906 -266 2906 331 
L 2906 616 
Q 2728 306 2450 153 
Q 2172 0 1784 0 
Q 1141 0 747 490 
Q 353 981 353 1791 
Q 353 2603 747 3093 
Q 1141 3584 1784 3584 
Q 2172 3584 2450 3431 
Q 2728 3278 2906 2969 
L 2906 3500 
L 3481 3500 
L 3481 434 
z
" transform="scale(0.015625)"/>
      </defs>
      <use xlink:href="#DejaVuSans-41"/>
      <use xlink:href="#DejaVuSans-76" transform="translate(62.533203 0)"/>
      <use xlink:href="#DejaVuSans-65" transform="translate(121.712891 0)"/>
      <use xlink:href="#DejaVuSans-72" transform="translate(183.236328 0)"/>
      <use xlink:href="#DejaVuSans-61" transform="translate(224.349609 0)"/>
      <use xlink:href="#DejaVuSans-67" transform="translate(285.628906 0)"/>
      <use xlink:href="#DejaVuSans-65" transform="translate(349.105469 0)"/>
      <use xlink:href="#DejaVuSans-20" transform="translate(410.628906 0)"/>
      <use xlink:href="#DejaVuSans-70" transform="translate(442.416016 0)"/>
      <use xlink:href="#DejaVuSans-72" transform="translate(505.892578 0)"/>
      <use xlink:href="#DejaVuSans-6f" transform="translate(544.755859 0)"/>
      <use xlink:href="#DejaVuSans-67" transform="translate(605.9375 0)"/>
      <use xlink:href="#DejaVuSans-72" transform="translate(669.414062 0)"/>
      <use xlink:href="#DejaVuSans-65" transform="translate(708.277344 0)"/>
      <use xlink:href="#DejaVuSans-73" transform="translate(769.800781 0)"/>
      <use xlink:href="#DejaVuSans-73" transform="translate(821.900391 0)"/>
     </g>
    </g>
    <g id="line2d_17">
     <path d="M 440.796875 54.656563 
L 450.796875 54.656563 
L 460.796875 54.656563 
" style="fill: none; stroke: #ff7f0e; stroke-width: 2; stroke-linecap: square"/>
    </g>
    <g id="text_18">
     <!-- Success rate -->
     <g transform="translate(468.796875 58.156563) scale(0.1 -0.1)">
      <defs>
       <path id="DejaVuSans-53" d="M 3425 4513 
L 3425 3897 
Q 3066 4069 2747 4153 
Q 2428 4238 2131 4238 
Q 1616 4238 1336 4038 
Q 1056 3838 1056 3469 
Q 1056 3159 1242 3001 
Q 1428 2844 1947 2747 
L 2328 2669 
Q 3034 2534 3370 2195 
Q 3706 1856 3706 1288 
Q 3706 609 3251 259 
Q 2797 -91 1919 -91 
Q 1588 -91 1214 -16 
Q 841 59 441 206 
L 441 856 
Q 825 641 1194 531 
Q 1563 422 1919 422 
Q 2459 422 2753 634 
Q 3047 847 3047 1241 
Q 3047 1584 2836 1778 
Q 2625 1972 2144 2069 
L 1759 2144 
Q 1053 2284 737 2584 
Q 422 2884 422 3419 
Q 422 4038 858 4394 
Q 1294 4750 2059 4750 
Q 2388 4750 2728 4690 
Q 3069 4631 3425 4513 
z
" transform="scale(0.015625)"/>
       <path id="DejaVuSans-63" d="M 3122 3366 
L 3122 2828 
Q 2878 2963 2633 3030 
Q 2388 3097 2138 3097 
Q 1578 3097 1268 2742 
Q 959 2388 959 1747 
Q 959 1106 1268 751 
Q 1578 397 2138 397 
Q 2388 397 2633 464 
Q 2878 531 3122 666 
L 3122 134 
Q 2881 22 2623 -34 
Q 2366 -91 2075 -91 
Q 1284 -91 818 406 
Q 353 903 353 1747 
Q 353 2603 823 3093 
Q 1294 3584 2113 3584 
Q 2378 3584 2631 3529 
Q 2884 3475 3122 3366 
z
" transform="scale(0.015625)"/>
      </defs>
      <use xlink:href="#DejaVuSans-53"/>
      <use xlink:href="#DejaVuSans-75" transform="translate(63.476562 0)"/>
      <use xlink:href="#DejaVuSans-63" transform="translate(126.855469 0)"/>
      <use xlink:href="#DejaVuSans-63" transform="translate(181.835938 0)"/>
      <use xlink:href="#DejaVuSans-65" transform="translate(236.816406 0)"/>
      <use xlink:href="#DejaVuSans-73" transform="translate(298.339844 0)"/>
      <use xlink:href="#DejaVuSans-73" transform="translate(350.439453 0)"/>
      <use xlink:href="#DejaVuSans-20" transform="translate(402.539062 0)"/>
      <use xlink:href="#DejaVuSans-72" transform="translate(434.326172 0)"/>
      <use xlink:href="#DejaVuSans-61" transform="translate(475.439453 0)"/>
      <use xlink:href="#DejaVuSans-74" transform="translate(536.71875 0)"/>
      <use xlink:href="#DejaVuSans-65" transform="translate(575.927734 0)"/>
     </g>
    </g>
   </g>
  </g>
 </g>
 <defs>
  <clipPath id="p2c5815ad43">
   <rect x="62.3" y="26.88" width="502.9" height="291.16"/>
  </clipPath>
 </defs>
</svg>
