<?xml version="1.0" encoding="utf-8" standalone="no"?>
<!DOCTYPE svg PUBLIC "-//W3C//DTD SVG 1.1//EN"
  "http://www.w3.org/Graphics/SVG/1.1/DTD/svg11.dtd">
<svg xmlns:xlink="http://www.w3.org/1999/xlink" width="576pt" height="360pt" viewBox="0 0 576 360" xmlns="http://www.w3.org/2000/svg" version="1.1">
 <metadata>
  <rdf:RDF xmlns:dc="http://purl.org/dc/elements/1.1/" xmlns:cc="http://creativecommons.org/ns#" xmlns:rdf="http://www.w3.org/1999/02/22-rdf-syntax-ns#">
   <cc:Work>
    <dc:type rdf:resource="http://purl.org/dc/dcmitype/StillImage"/>
    <dc:date>2026-02-28T05:52:19.396161</dc:date>
    <dc:format>image/svg+xml</dc:format>
    <dc:creator>
     <cc:Agent>
      <dc:title>Matplotlib v3.10.7, https://matplotlib.org/</dc:title>
     </cc:Agent>
    </dc:creator>
   </cc:Work>
  </rdf:RDF>
 </metadata>
 <defs>
  <style type="text/css">*{stroke-linejoin: round; stroke-linecap: butt}</style>
 </defs>
 <g id="figure_1">
  <g id="patch_1">
   <path d="M 0 360 
L 576 360 
L 576 0 
L 0 0 
z
" style="fill: #ffffff"/>
  </g>
  <g id="axes_1">
   <g id="patch_2">
    <path d="M 62.3 318.04 
L 565.2 318.04 
L 565.2 26.88 
L 62.3 26.88 
z
" style="fill: #ffffff"/>
   </g>
   <g id="matplotlib.axis_1">
    <g id="xtick_1">
     <g id="line2d_1">
      <defs>
       <path id="m96e1be2f16" d="M 0 0 
L 0 3.5 
" style="stroke: #000000; stroke-width: 0.8"/>
      </defs>
      <g>
       <use xlink:href="#m96e1be2f16" x="84.118859" y="318.04" style="stroke: #000000; stroke-width: 0.8"/>
      </g>
     </g>
     <g id="text_1">
      <!-- 0 -->
      <g transform="translate(80.937609 332.638438) scale(0.1 -0.1)">
       <defs>
        <path id="DejaVuSans-30" d="M 2034 4250 
Q 1547 4250 1301 3770 
Q 1056 3291 1056 2328 
Q 1056 1369 1301 889 
Q 1547 409 2034 409 
Q 2525 409 2770 889 
Q 3016 1369 3016 2328 
Q 3016 3291 2770 3770 
Q 2525 4250 2034 4250 
z
M 2034 4750 
Q 2819 4750 3233 4129 
Q 3647 3509 3647 2328 
Q 3647 1150 3233 529 
Q 2819 -91 2034 -91 
Q 1250 -91 836 529 
Q 422 1150 422 2328 
Q 422 3509 836 4129 
Q 1250 4750 2034 4750 
z
" transform="scale(0.015625)"/>
       </defs>
       <use xlink:href="#DejaVuSans-30"/>
      </g>
     </g>
    </g>
    <g id="xtick_2">
     <g id="line2d_2">
      <g>
       <use xlink:href="#m96e1be2f16" x="160.607397" y="318.04" style="stroke: #000000; stroke-width: 0.8"/>
      </g>
     </g>
     <g id="text_2">
      <!-- 50 -->
      <g transform="translate(154.244897 332.638438) scale(0.1 -0.1)">
       <defs>
        <path id="DejaVuSans-35" d="M 691 4666 
L 3169 4666 
L 3169 4134 
L 1269 4134 
L 1269 2991 
Q 1406 3038 1543 3061 
Q 1681 3084 1819 3084 
Q 2600 3084 3056 2656 
Q 3513 2228 3513 1497 
Q 3513 744 3044 326 
Q 2575 -91 1722 -91 
Q 1428 -91 1123 -41 
Q 819 9 494 109 
L 494 744 
Q 775 591 1075 516 
Q 1375 441 1709 441 
Q 2250 441 2565 725 
Q 2881 1009 2881 1497 
Q 2881 1984 2565 2268 
Q 2250 2553 1709 2553 
Q 1456 2553 1204 2497 
Q 953 2441 691 2322 
L 691 4666 
z
" transform="scale(0.015625)"/>
       </defs>
       <use xlink:href="#DejaVuSans-35"/>
       <use xlink:href="#DejaVuSans-30" transform="translate(63.623047 0)"/>
      </g>
     </g>
    </g>
    <g id="xtick_3">
     <g id="line2d_3">
      <g>
       <use xlink:href="#m96e1be2f16" x="237.095935" y="318.04" style="stroke: #000000; stroke-width: 0.8"/>
      </g>
     </g>
     <g id="text_3">
      <!-- 100 -->
      <g transform="translate(227.552185 332.638438) scale(0.1 -0.1)">
       <defs>
        <path id="DejaVuSans-31" d="M 794 531 
L 1825 531 
L 1825 4091 
L 703 3866 
L 703 4441 
L 1819 4666 
L 2450 4666 
L 2450 531 
L 3481 531 
L 3481 0 
L 794 0 
L 794 531 
z
" transform="scale(0.015625)"/>
       </defs>
       <use xlink:href="#DejaVuSans-31"/>
       <use xlink:href="#DejaVuSans-30" transform="translate(63.623047 0)"/>
       <use xlink:href="#DejaVuSans-30" transform="translate(127.246094 0)"/>
      </g>
     </g>
    </g>
    <g id="xtick_4">
     <g id="line2d_4">
      <g>
       <use xlink:href="#m96e1be2f16" x="313.584473" y="318.04" style="stroke: #000000; stroke-width: 0.8"/>
      </g>
     </g>
     <g id="text_4">
      <!-- 150 -->
      <g transform="translate(304.040723 332.638438) scale(0.1 -0.1)">
       <use xlink:href="#DejaVuSans-31"/>
       <use xlink:href="#DejaVuSans-35" transform="translate(63.623047 0)"/>
       <use xlink:href="#DejaVuSans-30" transform="translate(127.246094 0)"/>
      </g>
     </g>
    </g>
    <g id="xtick_5">
     <g id="line2d_5">
      <g>
       <use xlink:href="#m96e1be2f16" x="390.073011" y="318.04" style="stroke: #000000; stroke-width: 0.8"/>
      </g>
     </g>
     <g id="text_5">
      <!-- 200 -->
      <g transform="translate(380.529261 332.638438) scale(0.1 -0.1)">
       <defs>
        <path id="DejaVuSans-32" d="M 1228 531 
L 3431 531 
L 3431 0 
L 469 0 
L 469 531 
Q 828 903 1448 1529 
Q 2069 2156 2228 2338 
Q 2531 2678 2651 2914 
Q 2772 3150 2772 3378 
Q 2772 3750 2511 3984 
Q 2250 4219 1831 4219 
Q 1534 4219 1204 4116 
Q 875 4013 500 3803 
L 500 4441 
Q 881 4594 1212 4672 
Q 1544 4750 1819 4750 
Q 2544 4750 2975 4387 
Q 3406 4025 3406 3419 
Q 3406 3131 3298 2873 
Q 3191 2616 2906 2266 
Q 2828 2175 2409 1742 
Q 1991 1309 1228 531 
z
" transform="scale(0.015625)"/>
       </defs>
       <use xlink:href="#DejaVuSans-32"/>
       <use xlink:href="#DejaVuSans-30" transform="translate(63.623047 0)"/>
       <use xlink:href="#DejaVuSans-30" transform="translate(127.246094 0)"/>
      </g>
     </g>
    </g>
    <g id="xtick_6">
     <g id="line2d_6">
      <g>
       <use xlink:href="#m96e1be2f16" x="466.561548" y="318.04" style="stroke: #000000; stroke-width: 0.8"/>
      </g>
     </g>
     <g id="text_6">
      <!-- 250 -->
      <g transform="translate(457.017798 332.638438) scale(0.1 -0.1)">
       <use xlink:href="#DejaVuSans-32"/>
       <use xlink:href="#DejaVuSans-35" transform="translate(63.623047 0)"/>
       <use xlink:href="#DejaVuSans-30" transform="translate(127.246094 0)"/>
      </g>
     </g>
    </g>
    <g id="xtick_7">
     <g id="line2d_7">
      <g>
       <use xlink:href="#m96e1be2f16" x="543.050086" y="318.04" style="stroke: #000000; stroke-width: 0.8"/>
      </g>
     </g>
     <g id="text_7">
      <!-- 300 -->
      <g transform="translate(533.506336 332.638438) scale(0.1 -0.1)">
       <defs>
        <path id="DejaVuSans-33" d="M 2597 2516 
Q 3050 2419 3304 2112 
Q 3559 1806 3559 1356 
Q 3559 666 3084 287 
Q 2609 -91 1734 -91 
Q 1441 -91 1130 -33 
Q 819 25 488 141 
L 488 750 
Q 750 597 1062 519 
Q 1375 441 1716 441 
Q 2309 441 2620 675 
Q 2931 909 2931 1356 
Q 2931 1769 2642 2001 
Q 2353 2234 1838 2234 
L 1294 2234 
L 1294 2753 
L 1863 2753 
Q 2328 2753 2575 2939 
Q 2822 3125 2822 3475 
Q 2822 3834 2567 4026 
Q 2313 4219 1838 4219 
Q 1578 4219 1281 4162 
Q 984 4106 628 3988 
L 628 4550 
Q 988 4650 1302 4700 
Q 1616 4750 1894 4750 
Q 2613 4750 3031 4423 
Q 3450 4097 3450 3541 
Q 3450 3153 3228 2886 
Q 3006 2619 2597 2516 
z
" transform="scale(0.015625)"/>
       </defs>
       <use xlink:href="#DejaVuSans-33"/>
       <use xlink:href="#DejaVuSans-30" transform="translate(63.623047 0)"/>
       <use xlink:href="#DejaVuSans-30" transform="translate(127.246094 0)"/>
      </g>
     </g>
    </g>
    <g id="text_8">
     <!-- time steps (M) -->
     <g transform="translate(277.639844 346.316563) scale(0.1 -0.1)">
      <defs>
       <path id="DejaVuSans-74" d="M 1172 4494 
L 1172 3500 
L 2356 3500 
L 2356 3053 
L 1172 3053 
L 1172 1153 
Q 1172 725 1289 603 
Q 1406 481 1766 481 
L 2356 481 
L 2356 0 
L 1766 0 
Q 1100 0 847 248 
Q 594 497 594 1153 
L 594 3053 
L 172 3053 
L 172 3500 
L 594 3500 
L 594 4494 
L 1172 4494 
z
" transform="scale(0.015625)"/>
       <path id="DejaVuSans-69" d="M 603 3500 
L 1178 3500 
L 1178 0 
L 603 0 
L 603 3500 
z
M 603 4863 
L 1178 4863 
L 1178 4134 
L 603 4134 
L 603 4863 
z
" transform="scale(0.015625)"/>
       <path id="DejaVuSans-6d" d="M 3328 2828 
Q 3544 3216 3844 3400 
Q 4144 3584 4550 3584 
Q 5097 3584 5394 3201 
Q 5691 2819 5691 2113 
L 5691 0 
L 5113 0 
L 5113 2094 
Q 5113 2597 4934 2840 
Q 4756 3084 4391 3084 
Q 3944 3084 3684 2787 
Q 3425 2491 3425 1978 
L 3425 0 
L 2847 0 
L 2847 2094 
Q 2847 2600 2669 2842 
Q 2491 3084 2119 3084 
Q 1678 3084 1418 2786 
Q 1159 2488 1159 1978 
L 1159 0 
L 581 0 
L 581 3500 
L 1159 3500 
L 1159 2956 
Q 1356 3278 1631 3431 
Q 1906 3584 2284 3584 
Q 2666 3584 2933 3390 
Q 3200 3197 3328 2828 
z
" transform="scale(0.015625)"/>
       <path id="DejaVuSans-65" d="M 3597 1894 
L 3597 1613 
L 953 1613 
Q 991 1019 1311 708 
Q 1631 397 2203 397 
Q 2534 397 2845 478 
Q 3156 559 3463 722 
L 3463 178 
Q 3153 47 2828 -22 
Q 2503 -91 2169 -91 
Q 1331 -91 842 396 
Q 353 884 353 1716 
Q 353 2575 817 3079 
Q 1281 3584 2069 3584 
Q 2775 3584 3186 3129 
Q 3597 2675 3597 1894 
z
M 3022 2063 
Q 3016 2534 2758 2815 
Q 2500 3097 2075 3097 
Q 1594 3097 1305 2825 
Q 1016 2553 972 2059 
L 3022 2063 
z
" transform="scale(0.015625)"/>
       <path id="DejaVuSans-20" transform="scale(0.015625)"/>
       <path id="DejaVuSans-73" d="M 2834 3397 
L 2834 2853 
Q 2591 2978 2328 3040 
Q 2066 3103 1784 3103 
Q 1356 3103 1142 2972 
Q 928 2841 928 2578 
Q 928 2378 1081 2264 
Q 1234 2150 1697 2047 
L 1894 2003 
Q 2506 1872 2764 1633 
Q 3022 1394 3022 966 
Q 3022 478 2636 193 
Q 2250 -91 1575 -91 
Q 1294 -91 989 -36 
Q 684 19 347 128 
L 347 722 
Q 666 556 975 473 
Q 1284 391 1588 391 
Q 1994 391 2212 530 
Q 2431 669 2431 922 
Q 2431 1156 2273 1281 
Q 2116 1406 1581 1522 
L 1381 1569 
Q 847 1681 609 1914 
Q 372 2147 372 2553 
Q 372 3047 722 3315 
Q 1072 3584 1716 3584 
Q 2034 3584 2315 3537 
Q 2597 3491 2834 3397 
z
" transform="scale(0.015625)"/>
       <path id="DejaVuSans-70" d="M 1159 525 
L 1159 -1331 
L 581 -1331 
L 581 3500 
L 1159 3500 
L 1159 2969 
Q 1341 3281 1617 3432 
Q 1894 3584 2278 3584 
Q 2916 3584 3314 3078 
Q 3713 2572 3713 1747 
Q 3713 922 3314 415 
Q 2916 -91 2278 -91 
Q 1894 -91 1617 61 
Q 1341 213 1159 525 
z
M 3116 1747 
Q 3116 2381 2855 2742 
Q 2594 3103 2138 3103 
Q 1681 3103 1420 2742 
Q 1159 2381 1159 1747 
Q 1159 1113 1420 752 
Q 1681 391 2138 391 
Q 2594 391 2855 752 
Q 3116 1113 3116 1747 
z
" transform="scale(0.015625)"/>
       <path id="DejaVuSans-28" d="M 1984 4856 
Q 1566 4138 1362 3434 
Q 1159 2731 1159 2009 
Q 1159 1288 1364 580 
Q 1569 -128 1984 -844 
L 1484 -844 
Q 1016 -109 783 600 
Q 550 1309 550 2009 
Q 550 2706 781 3412 
Q 1013 4119 1484 4856 
L 1984 4856 
z
" transform="scale(0.015625)"/>
       <path id="DejaVuSans-4d" d="M 628 4666 
L 1569 4666 
L 2759 1491 
L 3956 4666 
L 4897 4666 
L 4897 0 
L 4281 0 
L 4281 4097 
L 3078 897 
L 2444 897 
L 1241 4097 
L 1241 0 
L 628 0 
L 628 4666 
z
" transform="scale(0.015625)"/>
       <path id="DejaVuSans-29" d="M 513 4856 
L 1013 4856 
Q 1481 4119 1714 3412 
Q 1947 2706 1947 2009 
Q 1947 1309 1714 600 
Q 1481 -109 1013 -844 
L 513 -844 
Q 928 -128 1133 580 
Q 1338 1288 1338 2009 
Q 1338 2731 1133 3434 
Q 928 4138 513 4856 
z
" transform="scale(0.015625)"/>
      </defs>
      <use xlink:href="#DejaVuSans-74"/>
      <use xlink:href="#DejaVuSans-69" transform="translate(39.208984 0)"/>
      <use xlink:href="#DejaVuSans-6d" transform="translate(66.992188 0)"/>
      <use xlink:href="#DejaVuSans-65" transform="translate(164.404297 0)"/>
      <use xlink:href="#DejaVuSans-20" transform="translate(225.927734 0)"/>
      <use xlink:href="#DejaVuSans-73" transform="translate(257.714844 0)"/>
      <use xlink:href="#DejaVuSans-74" transform="translate(309.814453 0)"/>
      <use xlink:href="#DejaVuSans-65" transform="translate(349.023438 0)"/>
      <use xlink:href="#DejaVuSans-70" transform="translate(410.546875 0)"/>
      <use xlink:href="#DejaVuSans-73" transform="translate(474.023438 0)"/>
      <use xlink:href="#DejaVuSans-20" transform="translate(526.123047 0)"/>
      <use xlink:href="#DejaVuSans-28" transform="translate(557.910156 0)"/>
      <use xlink:href="#DejaVuSans-4d" transform="translate(596.923828 0)"/>
      <use xlink:href="#DejaVuSans-29" transform="translate(683.203125 0)"/>
     </g>
    </g>
   </g>
   <g id="matplotlib.axis_2">
    <g id="ytick_1">
     <g id="line2d_8">
      <defs>
       <path id="me3c70a43e6" d="M 0 0 
L -3.5 0 
" style="stroke: #000000; stroke-width: 0.8"/>
      </defs>
      <g>
       <use xlink:href="#me3c70a43e6" x="62.3" y="318.04" style="stroke: #000000; stroke-width: 0.8"/>
      </g>
     </g>
     <g id="text_9">
      <!-- 0.00 -->
      <g transform="translate(33.034375 321.839219) scale(0.1 -0.1)">
       <defs>
        <path id="DejaVuSans-2e" d="M 684 794 
L 1344 794 
L 1344 0 
L 684 0 
L 684 794 
z
" transform="scale(0.015625)"/>
       </defs>
       <use xlink:href="#DejaVuSans-30"/>
       <use xlink:href="#DejaVuSans-2e" transform="translate(63.623047 0)"/>
       <use xlink:href="#DejaVuSans-30" transform="translate(95.410156 0)"/>
       <use xlink:href="#DejaVuSans-30" transform="translate(159.033203 0)"/>
      </g>
     </g>
    </g>
    <g id="ytick_2">
     <g id="line2d_9">
      <g>
       <use xlink:href="#me3c70a43e6" x="62.3" y="281.296966" style="stroke: #000000; stroke-width: 0.8"/>
      </g>
     </g>
     <g id="text_10">
      <!-- 0.02 -->
      <g transform="translate(33.034375 285.096185) scale(0.1 -0.1)">
       <use xlink:href="#DejaVuSans-30"/>
       <use xlink:href="#DejaVuSans-2e" transform="translate(63.623047 0)"/>
       <use xlink:href="#DejaVuSans-30" transform="translate(95.410156 0)"/>
       <use xlink:href="#DejaVuSans-32" transform="translate(159.033203 0)"/>
      </g>
     </g>
    </g>
    <g id="ytick_3">
     <g id="line2d_10">
      <g>
       <use xlink:href="#me3c70a43e6" x="62.3" y="244.553933" style="stroke: #000000; stroke-width: 0.8"/>
      </g>
     </g>
     <g id="text_11">
      <!-- 0.04 -->
      <g transform="translate(33.034375 248.353151) scale(0.1 -0.1)">
       <defs>
        <path id="DejaVuSans-34" d="M 2419 4116 
L 825 1625 
L 2419 1625 
L 2419 4116 
z
M 2253 4666 
L 3047 4666 
L 3047 1625 
L 3713 1625 
L 3713 1100 
L 3047 1100 
L 3047 0 
L 2419 0 
L 2419 1100 
L 313 1100 
L 313 1709 
L 2253 4666 
z
" transform="scale(0.015625)"/>
       </defs>
       <use xlink:href="#DejaVuSans-30"/>
       <use xlink:href="#DejaVuSans-2e" transform="translate(63.623047 0)"/>
       <use xlink:href="#DejaVuSans-30" transform="translate(95.410156 0)"/>
       <use xlink:href="#DejaVuSans-34" transform="translate(159.033203 0)"/>
      </g>
     </g>
    </g>
    <g id="ytick_4">
     <g id="line2d_11">
      <g>
       <use xlink:href="#me3c70a43e6" x="62.3" y="207.810899" style="stroke: #000000; stroke-width: 0.8"/>
      </g>
     </g>
     <g id="text_12">
      <!-- 0.06 -->
      <g transform="translate(33.034375 211.610118) scale(0.1 -0.1)">
       <defs>
        <path id="DejaVuSans-36" d="M 2113 2584 
Q 1688 2584 1439 2293 
Q 1191 2003 1191 1497 
Q 1191 994 1439 701 
Q 1688 409 2113 409 
Q 2538 409 2786 701 
Q 3034 994 3034 1497 
Q 3034 2003 2786 2293 
Q 2538 2584 2113 2584 
z
M 3366 4563 
L 3366 3988 
Q 3128 4100 2886 4159 
Q 2644 4219 2406 4219 
Q 1781 4219 1451 3797 
Q 1122 3375 1075 2522 
Q 1259 2794 1537 2939 
Q 1816 3084 2150 3084 
Q 2853 3084 3261 2657 
Q 3669 2231 3669 1497 
Q 3669 778 3244 343 
Q 2819 -91 2113 -91 
Q 1303 -91 875 529 
Q 447 1150 447 2328 
Q 447 3434 972 4092 
Q 1497 4750 2381 4750 
Q 2619 4750 2861 4703 
Q 3103 4656 3366 4563 
z
" transform="scale(0.015625)"/>
       </defs>
       <use xlink:href="#DejaVuSans-30"/>
       <use xlink:href="#DejaVuSans-2e" transform="translate(63.623047 0)"/>
       <use xlink:href="#DejaVuSans-30" transform="translate(95.410156 0)"/>
       <use xlink:href="#DejaVuSans-36" transform="translate(159.033203 0)"/>
      </g>
     </g>
    </g>
    <g id="ytick_5">
     <g id="line2d_12">
      <g>
       <use xlink:href="#me3c70a43e6" x="62.3" y="171.067865" style="stroke: #000000; stroke-width: 0.8"/>
      </g>
     </g>
     <g id="text_13">
      <!-- 0.08 -->
      <g transform="translate(33.034375 174.867084) scale(0.1 -0.1)">
       <defs>
        <path id="DejaVuSans-38" d="M 2034 2216 
Q 1584 2216 1326 1975 
Q 1069 1734 1069 1313 
Q 1069 891 1326 650 
Q 1584 409 2034 409 
Q 2484 409 2743 651 
Q 3003 894 3003 1313 
Q 3003 1734 2745 1975 
Q 2488 2216 2034 2216 
z
M 1403 2484 
Q 997 2584 770 2862 
Q 544 3141 544 3541 
Q 544 4100 942 4425 
Q 1341 4750 2034 4750 
Q 2731 4750 3128 4425 
Q 3525 4100 3525 3541 
Q 3525 3141 3298 2862 
Q 3072 2584 2669 2484 
Q 3125 2378 3379 2068 
Q 3634 1759 3634 1313 
Q 3634 634 3220 271 
Q 2806 -91 2034 -91 
Q 1263 -91 848 271 
Q 434 634 434 1313 
Q 434 1759 690 2068 
Q 947 2378 1403 2484 
z
M 1172 3481 
Q 1172 3119 1398 2916 
Q 1625 2713 2034 2713 
Q 2441 2713 2670 2916 
Q 2900 3119 2900 3481 
Q 2900 3844 2670 4047 
Q 2441 4250 2034 4250 
Q 1625 4250 1398 4047 
Q 1172 3844 1172 3481 
z
" transform="scale(0.015625)"/>
       </defs>
       <use xlink:href="#DejaVuSans-30"/>
       <use xlink:href="#DejaVuSans-2e" transform="translate(63.623047 0)"/>
       <use xlink:href="#DejaVuSans-30" transform="translate(95.410156 0)"/>
       <use xlink:href="#DejaVuSans-38" transform="translate(159.033203 0)"/>
      </g>
     </g>
    </g>
    <g id="ytick_6">
     <g id="line2d_13">
      <g>
       <use xlink:href="#me3c70a43e6" x="62.3" y="134.324831" style="stroke: #000000; stroke-width: 0.8"/>
      </g>
     </g>
     <g id="text_14">
      <!-- 0.10 -->
      <g transform="translate(33.034375 138.12405) scale(0.1 -0.1)">
       <use xlink:href="#DejaVuSans-30"/>
       <use xlink:href="#DejaVuSans-2e" transform="translate(63.623047 0)"/>
       <use xlink:href="#DejaVuSans-31" transform="translate(95.410156 0)"/>
       <use xlink:href="#DejaVuSans-30" transform="translate(159.033203 0)"/>
      </g>
     </g>
    </g>
    <g id="ytick_7">
     <g id="line2d_14">
      <g>
       <use xlink:href="#me3c70a43e6" x="62.3" y="97.581798" style="stroke: #000000; stroke-width: 0.8"/>
      </g>
     </g>
     <g id="text_15">
      <!-- 0.12 -->
      <g transform="translate(33.034375 101.381016) scale(0.1 -0.1)">
       <use xlink:href="#DejaVuSans-30"/>
       <use xlink:href="#DejaVuSans-2e" transform="translate(63.623047 0)"/>
       <use xlink:href="#DejaVuSans-31" transform="translate(95.410156 0)"/>
       <use xlink:href="#DejaVuSans-32" transform="translate(159.033203 0)"/>
      </g>
     </g>
    </g>
    <g id="ytick_8">
     <g id="line2d_15">
      <g>
       <use xlink:href="#me3c70a43e6" x="62.3" y="60.838764" style="stroke: #000000; stroke-width: 0.8"/>
      </g>
     </g>
     <g id="text_16">
      <!-- 0.14 -->
      <g transform="translate(33.034375 64.637983) scale(0.1 -0.1)">
       <use xlink:href="#DejaVuSans-30"/>
       <use xlink:href="#DejaVuSans-2e" transform="translate(63.623047 0)"/>
       <use xlink:href="#DejaVuSans-31" transform="translate(95.410156 0)"/>
       <use xlink:href="#DejaVuSans-34" transform="translate(159.033203 0)"/>
      </g>
     </g>
    </g>
    <g id="text_17">
     <!-- % -->
     <g transform="translate(26.954688 177.210781) rotate(-90) scale(0.1 -0.1)">
      <defs>
       <path id="DejaVuSans-25" d="M 4653 2053 
Q 4381 2053 4226 1822 
Q 4072 1591 4072 1178 
Q 4072 772 4226 539 
Q 4381 306 4653 306 
Q 4919 306 5073 539 
Q 5228 772 5228 1178 
Q 5228 1588 5073 1820 
Q 4919 2053 4653 2053 
z
M 4653 2450 
Q 5147 2450 5437 2106 
Q 5728 1763 5728 1178 
Q 5728 594 5436 251 
Q 5144 -91 4653 -91 
Q 4153 -91 3862 251 
Q 3572 594 3572 1178 
Q 3572 1766 3864 2108 
Q 4156 2450 4653 2450 
z
M 1428 4353 
Q 1159 4353 1004 4120 
Q 850 3888 850 3481 
Q 850 3069 1003 2837 
Q 1156 2606 1428 2606 
Q 1700 2606 1854 2837 
Q 2009 3069 2009 3481 
Q 2009 3884 1853 4118 
Q 1697 4353 1428 4353 
z
M 4250 4750 
L 4750 4750 
L 1831 -91 
L 1331 -91 
L 4250 4750 
z
M 1428 4750 
Q 1922 4750 2215 4408 
Q 2509 4066 2509 3481 
Q 2509 2891 2217 2550 
Q 1925 2209 1428 2209 
Q 931 2209 642 2551 
Q 353 2894 353 3481 
Q 353 4063 643 4406 
Q 934 4750 1428 4750 
z
" transform="scale(0.015625)"/>
      </defs>
      <use xlink:href="#DejaVuSans-25"/>
     </g>
    </g>
   </g>
   <g id="line2d_16">
    <path d="M 85.159091 40.744762 
L 86.291109 53.850183 
L 87.377234 33.358238 
L 88.371573 50.308756 
L 89.365912 34.558284 
L 90.36025 52.754157 
L 91.400482 59.578123 
L 92.394821 54.262283 
L 93.38916 32.274046 
L 94.521178 60.286706 
L 95.56141 39.967102 
L 96.601642 53.149863 
L 97.687767 54.064362 
L 98.682105 41.561963 
L 99.722337 57.659994 
L 100.762569 47.606619 
L 101.756908 29.09038 
L 102.79714 53.729206 
L 103.791478 50.572702 
L 104.785817 58.402379 
L 105.780156 63.117985 
L 106.774495 54.202344 
L 107.814727 50.922924 
L 108.854958 36.633523 
L 109.849297 51.486273 
L 110.935422 60.3017 
L 111.975654 61.371744 
L 113.015886 52.27285 
L 114.056118 68.441496 
L 115.09635 63.473552 
L 116.090688 45.052606 
L 117.085027 43.177823 
L 118.079366 63.215068 
L 119.073705 54.207271 
L 120.113937 43.244645 
L 121.108275 68.476678 
L 122.148507 80.020084 
L 123.142846 82.179074 
L 124.228971 36.365965 
L 125.22331 57.75189 
L 126.263542 37.812992 
L 127.25788 26.111171 
L 128.252219 36.713316 
L 129.246558 50.55114 
L 130.240897 58.270886 
L 131.281129 28.541112 
L 132.413147 44.416824 
L 133.407485 49.147788 
L 134.401824 51.04602 
L 135.396163 33.536218 
L 136.390502 54.067689 
L 137.38484 48.295637 
L 138.379179 45.123727 
L 139.373518 49.505634 
L 140.367857 61.140457 
L 142.356534 47.843698 
L 143.350873 57.976613 
L 144.391105 47.737515 
L 145.47723 47.845673 
L 146.517462 61.982063 
L 147.557694 50.459221 
L 148.552032 54.067953 
L 149.546371 64.375773 
L 150.54071 51.359681 
L 151.535049 53.298415 
L 152.529387 63.33187 
L 153.615512 50.079133 
L 154.609851 59.988785 
L 155.787762 55.780835 
L 156.782101 54.566884 
L 157.822333 52.968078 
L 158.816672 55.808577 
L 159.81101 51.202754 
L 160.851242 62.958845 
L 161.845581 54.249778 
L 162.83992 39.396064 
L 163.926045 59.176446 
L 164.920384 55.595459 
L 165.960616 56.452943 
L 167.046741 59.340156 
L 168.132866 53.563753 
L 169.218991 60.889751 
L 170.213329 45.708726 
L 171.299454 34.418804 
L 172.339686 50.910552 
L 173.379918 55.030306 
L 174.374257 61.832779 
L 175.368596 71.399092 
L 176.362934 57.566787 
L 177.357273 74.888668 
L 178.351612 60.941619 
L 179.391844 58.453972 
L 180.432076 56.462103 
L 181.426414 49.374933 
L 182.420753 48.727168 
L 183.460985 68.320711 
L 184.54711 50.616455 
L 185.541449 61.299452 
L 186.535787 45.685263 
L 187.576019 39.221899 
L 188.708037 45.21343 
L 189.702376 66.728591 
L 190.696715 48.780336 
L 191.736947 70.115737 
L 192.868965 45.679993 
L 193.909197 45.871938 
L 194.903536 51.913139 
L 195.943767 55.155976 
L 196.938106 69.023486 
L 197.932445 50.884985 
L 198.926784 51.831111 
L 199.967016 66.185874 
L 200.961354 70.09246 
L 202.001586 54.74099 
L 202.995925 70.321931 
L 204.036157 59.743018 
L 205.030496 68.007667 
L 206.024834 46.3168 
L 207.065066 53.540522 
L 208.059405 39.619625 
L 209.099637 38.063459 
L 210.093976 28.416208 
L 211.134208 55.690257 
L 212.174439 60.723093 
L 213.214671 42.393802 
L 214.254903 58.259066 
L 215.295135 54.30163 
L 216.289474 61.665164 
L 217.375599 34.777607 
L 218.369938 68.449176 
L 219.364276 77.5936 
L 220.404508 47.003177 
L 221.398847 60.057726 
L 222.439079 64.91455 
L 223.433418 58.608369 
L 224.427756 43.466922 
L 225.422095 39.00312 
L 226.50822 67.780196 
L 227.548452 72.599789 
L 228.542791 42.03131 
L 229.537129 57.867916 
L 230.577361 32.855756 
L 231.5717 45.680385 
L 232.566039 43.975127 
L 233.560378 64.186273 
L 234.600609 47.963793 
L 235.594948 58.360732 
L 236.63518 51.922449 
L 237.629519 32.911668 
L 238.761537 60.399311 
L 239.755876 51.084749 
L 240.750214 62.508059 
L 241.836339 35.503301 
L 242.830678 46.282019 
L 243.825017 45.433693 
L 244.865249 56.808677 
L 245.859588 59.427394 
L 246.899819 50.769267 
L 247.985944 60.330806 
L 248.980283 82.033189 
L 249.974622 46.135711 
L 251.060747 85.363679 
L 252.055086 43.091133 
L 253.049425 49.879393 
L 254.089656 62.830998 
L 255.129888 81.512834 
L 256.17012 56.324361 
L 257.164459 53.86015 
L 258.158798 52.331052 
L 259.153136 63.339416 
L 260.193368 55.891202 
L 261.187707 79.84077 
L 262.227939 94.658602 
L 263.314064 49.957879 
L 264.308403 77.924366 
L 265.302741 56.962001 
L 266.342973 59.451698 
L 267.383205 85.185485 
L 268.377544 54.589873 
L 269.371883 57.396534 
L 270.366221 71.884987 
L 271.406453 48.174447 
L 272.400792 58.807799 
L 273.395131 75.389165 
L 274.435363 45.280522 
L 275.521488 96.213816 
L 276.515826 58.265253 
L 277.510165 65.008016 
L 278.504504 81.773554 
L 279.498843 73.694096 
L 280.493181 56.959617 
L 281.533413 26.514328 
L 282.527752 86.919492 
L 283.522091 55.345208 
L 284.562323 45.432008 
L 285.648448 51.471199 
L 286.734573 59.28508 
L 287.774805 56.894419 
L 288.769143 88.182098 
L 289.763482 27.793456 
L 290.757821 70.037089 
L 291.75216 48.750276 
L 292.746498 42.168061 
L 293.740837 54.660359 
L 294.781069 85.918322 
L 295.775408 53.114858 
L 296.769747 56.871448 
L 297.809978 61.876646 
L 298.804317 68.893473 
L 299.798656 56.83808 
L 300.792995 59.320533 
L 301.787333 55.802212 
L 302.781672 67.364602 
L 303.776011 62.237655 
L 304.77035 47.676197 
L 305.764688 30.490647 
L 306.80492 30.069721 
L 307.799259 64.839466 
L 309.879723 54.156075 
L 310.965848 65.61895 
L 311.960187 58.408976 
L 312.954525 53.133592 
L 313.994757 45.02008 
L 314.989096 65.244577 
L 315.983435 66.131033 
L 317.023667 75.465189 
L 318.018005 36.992428 
L 319.058237 54.437979 
L 320.052576 59.574462 
L 321.046915 41.616057 
L 322.13304 62.431379 
L 323.173272 61.039708 
L 324.16761 43.250628 
L 325.161949 52.143459 
L 326.202181 33.300509 
L 328.236752 59.926014 
L 329.276983 62.011271 
L 330.271322 48.739949 
L 331.311554 58.229608 
L 332.397679 50.704746 
L 333.483804 45.268792 
L 334.478143 42.708396 
L 335.518375 3.347226 
L 336.558607 28.566053 
L 337.598839 50.275625 
L 338.593177 38.691389 
L 339.633409 35.826262 
L 340.673641 61.47836 
L 341.66798 64.266677 
L 342.662319 58.534507 
L 343.656657 45.572523 
L 344.696889 39.652891 
L 345.737121 36.413201 
L 346.73146 64.120781 
L 347.725799 41.534176 
L 348.720137 59.683089 
L 349.714476 52.75433 
L 350.754708 68.030552 
L 351.749047 91.990006 
L 352.743385 60.534132 
L 353.783617 53.597472 
L 354.869742 32.812917 
L 355.955867 68.738834 
L 357.041992 41.577731 
L 358.082224 65.663041 
L 359.076563 49.860687 
L 360.116795 61.212528 
L 361.111134 64.685905 
L 362.151365 57.72679 
L 363.191597 68.822914 
L 364.185936 57.809707 
L 365.226168 39.746857 
L 366.220507 53.990334 
L 368.209184 45.604729 
L 369.387095 50.086008 
L 370.381434 59.57841 
L 372.416005 63.658526 
L 373.410344 40.859507 
L 374.496469 74.639254 
L 375.5367 60.110088 
L 376.531039 65.481556 
L 377.525378 49.391212 
L 378.611503 62.779003 
L 379.697628 70.716894 
L 380.691967 92.678656 
L 381.732199 59.759111 
L 382.772431 51.009769 
L 383.766769 52.072369 
L 384.807001 61.860917 
L 385.80134 56.373679 
L 386.887465 67.654871 
L 387.881804 73.962099 
L 388.922036 52.224048 
L 389.916374 67.290667 
L 390.910713 64.937785 
L 391.950945 64.525541 
L 393.03707 63.455026 
L 394.077302 76.373092 
L 395.071641 62.376778 
L 396.065979 61.010681 
L 397.060318 66.230153 
L 398.054657 63.142766 
L 399.048996 75.39104 
L 400.043334 68.226031 
L 401.037673 74.132749 
L 402.032012 57.784886 
L 403.072244 61.549682 
L 404.112476 56.09417 
L 405.152707 76.009085 
L 406.192939 60.774959 
L 407.233171 60.904357 
L 408.273403 48.701286 
L 409.267742 64.621457 
L 410.262081 66.693697 
L 411.256419 58.169506 
L 412.250758 92.556367 
L 413.245097 86.442062 
L 414.239436 67.351948 
L 415.233774 56.95519 
L 416.319899 66.217939 
L 417.360131 60.689862 
L 418.446256 45.109154 
L 419.486488 67.523728 
L 420.480827 70.075601 
L 421.521059 65.465393 
L 422.515398 62.527855 
L 423.555629 68.514553 
L 424.549968 62.62097 
L 425.544307 55.79332 
L 426.538646 71.422525 
L 427.532984 69.281821 
L 428.665003 75.842013 
L 429.705234 63.662948 
L 430.745466 62.579472 
L 431.785698 80.251445 
L 432.780037 62.101484 
L 433.820269 67.726577 
L 434.906394 70.957051 
L 435.900733 72.999169 
L 436.895071 61.75351 
L 437.981196 61.369181 
L 439.021428 64.595207 
L 440.06166 86.511277 
L 441.101892 56.618495 
L 442.142124 64.025966 
L 443.182356 83.882568 
L 444.176694 58.561709 
L 445.216926 51.448644 
L 446.303051 59.404702 
L 447.29739 56.86226 
L 448.291729 66.18828 
L 449.331961 60.9301 
L 450.326299 64.268624 
L 451.366531 66.421196 
L 452.406763 46.738913 
L 453.401102 55.322031 
L 454.441334 46.682035 
L 455.527459 66.653523 
L 456.567691 40.540147 
L 457.562029 35.333942 
L 458.556368 66.632798 
L 459.550707 59.597809 
L 460.545046 63.855542 
L 461.539384 73.901312 
L 462.533723 51.737913 
L 463.573955 73.021199 
L 464.705973 62.92587 
L 465.700312 63.072118 
L 466.740544 57.967412 
L 467.734883 74.162474 
L 468.821008 28.889056 
L 469.907133 90.448421 
L 470.947365 34.237592 
L 471.987596 70.504716 
L 472.981935 56.754504 
L 473.976274 72.887344 
L 475.016506 66.972456 
L 476.056738 68.356322 
L 477.051076 111.980103 
L 478.045415 62.68941 
L 479.039754 75.069722 
L 480.034093 58.743632 
L 481.028431 57.755223 
L 482.02277 132.040139 
L 483.017109 71.002848 
L 484.011448 67.187786 
L 485.005786 61.041181 
L 486.046018 129.48545 
L 487.040357 70.152631 
L 488.080589 60.464119 
L 489.074928 79.821132 
L 490.069266 80.671248 
L 491.109498 93.680949 
L 492.14973 73.877763 
L 493.144069 58.048463 
L 494.138408 35.483725 
L 495.17864 86.78614 
L 496.172978 87.44519 
L 497.167317 62.676762 
L 498.161656 80.183775 
L 499.155995 73.102727 
L 500.196226 36.960566 
L 501.236458 72.568034 
L 502.27669 54.570313 
L 503.316922 115.444396 
L 504.357154 62.440627 
L 505.351493 65.138126 
L 506.345831 104.866672 
L 507.431956 67.59166 
L 508.472188 74.1087 
L 509.558313 83.032907 
L 510.598545 98.959717 
L 511.776456 58.954188 
L 512.862581 115.652602 
L 513.902813 43.169568 
L 514.897152 36.666273 
L 515.891491 34.898671 
L 516.88583 55.721631 
L 517.880168 44.262363 
L 518.9204 63.107235 
L 520.006525 79.472225 
L 521.046757 64.182889 
L 522.041096 53.758844 
L 523.035435 61.630076 
L 524.12156 68.053152 
L 525.115898 63.38315 
L 526.110237 41.657147 
L 527.104576 58.395317 
L 528.098915 58.490335 
L 529.093253 45.306613 
L 530.087592 28.382423 
L 531.081931 85.364914 
L 532.07627 64.299357 
L 533.070608 52.673748 
L 534.064947 97.039723 
L 535.151072 100.445405 
L 536.145411 51.393129 
L 537.185643 98.511618 
L 538.225875 122.569822 
L 539.220213 85.516249 
L 540.260445 38.195285 
L 541.300677 65.104542 
L 542.340909 60.405859 
L 542.340909 60.405859 
" clip-path="url(#p9d2173f4c6)" style="fill: none; stroke: #1f77b4; stroke-width: 2; stroke-linecap: square"/>
   </g>
   <g id="line2d_17">
    <path d="M 85.159091 318.04 
L 542.340909 318.04 
L 542.340909 318.04 
" clip-path="url(#p9d2173f4c6)" style="fill: none; stroke: #ff7f0e; stroke-width: 2; stroke-linecap: square"/>
   </g>
   <g id="patch_3">
    <path d="M 62.3 318.04 
L 62.3 26.88 
" style="fill: none; stroke: #000000; stroke-width: 0.8; stroke-linejoin: miter; stroke-linecap: square"/>
   </g>
   <g id="patch_4">
    <path d="M 565.2 318.04 
L 565.2 26.88 
" style="fill: none; stroke: #000000; stroke-width: 0.8; stroke-linejoin: miter; stroke-linecap: square"/>
   </g>
   <g id="patch_5">
    <path d="M 62.3 318.04 
L 565.2 318.04 
" style="fill: none; stroke: #000000; stroke-width: 0.8; stroke-linejoin: miter; stroke-linecap: square"/>
   </g>
   <g id="patch_6">
    <path d="M 62.3 26.88 
L 565.2 26.88 
" style="fill: none; stroke: #000000; stroke-width: 0.8; stroke-linejoin: miter; stroke-linecap: square"/>
   </g>
   <g id="text_18">
    <!-- Evaluation of level slabs -->
    <g transform="translate(240.914688 20.88) scale(0.12 -0.12)">
     <defs>
      <path id="DejaVuSans-45" d="M 628 4666 
L 3578 4666 
L 3578 4134 
L 1259 4134 
L 1259 2753 
L 3481 2753 
L 3481 2222 
L 1259 2222 
L 1259 531 
L 3634 531 
L 3634 0 
L 628 0 
L 628 4666 
z
" transform="scale(0.015625)"/>
      <path id="DejaVuSans-76" d="M 191 3500 
L 800 3500 
L 1894 563 
L 2988 3500 
L 3597 3500 
L 2284 0 
L 1503 0 
L 191 3500 
z
" transform="scale(0.015625)"/>
      <path id="DejaVuSans-61" d="M 2194 1759 
Q 1497 1759 1228 1600 
Q 959 1441 959 1056 
Q 959 750 1161 570 
Q 1363 391 1709 391 
Q 2188 391 2477 730 
Q 2766 1069 2766 1631 
L 2766 1759 
L 2194 1759 
z
M 3341 1997 
L 3341 0 
L 2766 0 
L 2766 531 
Q 2569 213 2275 61 
Q 1981 -91 1556 -91 
Q 1019 -91 701 211 
Q 384 513 384 1019 
Q 384 1609 779 1909 
Q 1175 2209 1959 2209 
L 2766 2209 
L 2766 2266 
Q 2766 2663 2505 2880 
Q 2244 3097 1772 3097 
Q 1472 3097 1187 3025 
Q 903 2953 641 2809 
L 641 3341 
Q 956 3463 1253 3523 
Q 1550 3584 1831 3584 
Q 2591 3584 2966 3190 
Q 3341 2797 3341 1997 
z
" transform="scale(0.015625)"/>
      <path id="DejaVuSans-6c" d="M 603 4863 
L 1178 4863 
L 1178 0 
L 603 0 
L 603 4863 
z
" transform="scale(0.015625)"/>
      <path id="DejaVuSans-75" d="M 544 1381 
L 544 3500 
L 1119 3500 
L 1119 1403 
Q 1119 906 1312 657 
Q 1506 409 1894 409 
Q 2359 409 2629 706 
Q 2900 1003 2900 1516 
L 2900 3500 
L 3475 3500 
L 3475 0 
L 2900 0 
L 2900 538 
Q 2691 219 2414 64 
Q 2138 -91 1772 -91 
Q 1169 -91 856 284 
Q 544 659 544 1381 
z
M 1991 3584 
L 1991 3584 
z
" transform="scale(0.015625)"/>
      <path id="DejaVuSans-6f" d="M 1959 3097 
Q 1497 3097 1228 2736 
Q 959 2375 959 1747 
Q 959 1119 1226 758 
Q 1494 397 1959 397 
Q 2419 397 2687 759 
Q 2956 1122 2956 1747 
Q 2956 2369 2687 2733 
Q 2419 3097 1959 3097 
z
M 1959 3584 
Q 2709 3584 3137 3096 
Q 3566 2609 3566 1747 
Q 3566 888 3137 398 
Q 2709 -91 1959 -91 
Q 1206 -91 779 398 
Q 353 888 353 1747 
Q 353 2609 779 3096 
Q 1206 3584 1959 3584 
z
" transform="scale(0.015625)"/>
      <path id="DejaVuSans-6e" d="M 3513 2113 
L 3513 0 
L 2938 0 
L 2938 2094 
Q 2938 2591 2744 2837 
Q 2550 3084 2163 3084 
Q 1697 3084 1428 2787 
Q 1159 2491 1159 1978 
L 1159 0 
L 581 0 
L 581 3500 
L 1159 3500 
L 1159 2956 
Q 1366 3272 1645 3428 
Q 1925 3584 2291 3584 
Q 2894 3584 3203 3211 
Q 3513 2838 3513 2113 
z
" transform="scale(0.015625)"/>
      <path id="DejaVuSans-66" d="M 2375 4863 
L 2375 4384 
L 1825 4384 
Q 1516 4384 1395 4259 
Q 1275 4134 1275 3809 
L 1275 3500 
L 2222 3500 
L 2222 3053 
L 1275 3053 
L 1275 0 
L 697 0 
L 697 3053 
L 147 3053 
L 147 3500 
L 697 3500 
L 697 3744 
Q 697 4328 969 4595 
Q 1241 4863 1831 4863 
L 2375 4863 
z
" transform="scale(0.015625)"/>
      <path id="DejaVuSans-62" d="M 3116 1747 
Q 3116 2381 2855 2742 
Q 2594 3103 2138 3103 
Q 1681 3103 1420 2742 
Q 1159 2381 1159 1747 
Q 1159 1113 1420 752 
Q 1681 391 2138 391 
Q 2594 391 2855 752 
Q 3116 1113 3116 1747 
z
M 1159 2969 
Q 1341 3281 1617 3432 
Q 1894 3584 2278 3584 
Q 2916 3584 3314 3078 
Q 3713 2572 3713 1747 
Q 3713 922 3314 415 
Q 2916 -91 2278 -91 
Q 1894 -91 1617 61 
Q 1341 213 1159 525 
L 1159 0 
L 581 0 
L 581 4863 
L 1159 4863 
L 1159 2969 
z
" transform="scale(0.015625)"/>
     </defs>
     <use xlink:href="#DejaVuSans-45"/>
     <use xlink:href="#DejaVuSans-76" transform="translate(63.183594 0)"/>
     <use xlink:href="#DejaVuSans-61" transform="translate(122.363281 0)"/>
     <use xlink:href="#DejaVuSans-6c" transform="translate(183.642578 0)"/>
     <use xlink:href="#DejaVuSans-75" transform="translate(211.425781 0)"/>
     <use xlink:href="#DejaVuSans-61" transform="translate(274.804688 0)"/>
     <use xlink:href="#DejaVuSans-74" transform="translate(336.083984 0)"/>
     <use xlink:href="#DejaVuSans-69" transform="translate(375.292969 0)"/>
     <use xlink:href="#DejaVuSans-6f" transform="translate(403.076172 0)"/>
     <use xlink:href="#DejaVuSans-6e" transform="translate(464.257812 0)"/>
     <use xlink:href="#DejaVuSans-20" transform="translate(527.636719 0)"/>
     <use xlink:href="#DejaVuSans-6f" transform="translate(559.423828 0)"/>
     <use xlink:href="#DejaVuSans-66" transform="translate(620.605469 0)"/>
     <use xlink:href="#DejaVuSans-20" transform="translate(655.810547 0)"/>
     <use xlink:href="#DejaVuSans-6c" transform="translate(687.597656 0)"/>
     <use xlink:href="#DejaVuSans-65" transform="translate(715.380859 0)"/>
     <use xlink:href="#DejaVuSans-76" transform="translate(776.904297 0)"/>
     <use xlink:href="#DejaVuSans-65" transform="translate(836.083984 0)"/>
     <use xlink:href="#DejaVuSans-6c" transform="translate(897.607422 0)"/>
     <use xlink:href="#DejaVuSans-20" transform="translate(925.390625 0)"/>
     <use xlink:href="#DejaVuSans-73" transform="translate(957.177734 0)"/>
     <use xlink:href="#DejaVuSans-6c" transform="translate(1009.277344 0)"/>
     <use xlink:href="#DejaVuSans-61" transform="translate(1037.060547 0)"/>
     <use xlink:href="#DejaVuSans-62" transform="translate(1098.339844 0)"/>
     <use xlink:href="#DejaVuSans-73" transform="translate(1161.816406 0)"/>
    </g>
   </g>
   <g id="legend_1">
    <g id="patch_7">
     <path d="M 69.3 313.04 
L 188.703125 313.04 
Q 190.703125 313.04 190.703125 311.04 
L 190.703125 282.68375 
Q 190.703125 280.68375 188.703125 280.68375 
L 69.3 280.68375 
Q 67.3 280.68375 67.3 282.68375 
L 67.3 311.04 
Q 67.3 313.04 69.3 313.04 
z
" style="fill: #ffffff; opacity: 0.8; stroke: #cccccc; stroke-linejoin: miter"/>
    </g>
    <g id="line2d_18">
     <path d="M 71.3 288.782188 
L 81.3 288.782188 
L 91.3 288.782188 
" style="fill: none; stroke: #1f77b4; stroke-width: 2; stroke-linecap: square"/>
    </g>
    <g id="text_19">
     <!-- Average progress -->
     <g transform="translate(99.3 292.282188) scale(0.1 -0.1)">
      <defs>
       <path id="DejaVuSans-41" d="M 2188 4044 
L 1331 1722 
L 3047 1722 
L 2188 4044 
z
M 1831 4666 
L 2547 4666 
L 4325 0 
L 3669 0 
L 3244 1197 
L 1141 1197 
L 716 0 
L 50 0 
L 1831 4666 
z
" transform="scale(0.015625)"/>
       <path id="DejaVuSans-72" d="M 2631 2963 
Q 2534 3019 2420 3045 
Q 2306 3072 2169 3072 
Q 1681 3072 1420 2755 
Q 1159 2438 1159 1844 
L 1159 0 
L 581 0 
L 581 3500 
L 1159 3500 
L 1159 2956 
Q 1341 3275 1631 3429 
Q 1922 3584 2338 3584 
Q 2397 3584 2469 3576 
Q 2541 3569 2628 3553 
L 2631 2963 
z
" transform="scale(0.015625)"/>
       <path id="DejaVuSans-67" d="M 2906 1791 
Q 2906 2416 2648 2759 
Q 2391 3103 1925 3103 
Q 1463 3103 1205 2759 
Q 947 2416 947 1791 
Q 947 1169 1205 825 
Q 1463 481 1925 481 
Q 2391 481 2648 825 
Q 2906 1169 2906 1791 
z
M 3481 434 
Q 3481 -459 3084 -895 
Q 2688 -1331 1869 -1331 
Q 1566 -1331 1297 -1286 
Q 1028 -1241 775 -1147 
L 775 -588 
Q 1028 -725 1275 -790 
Q 1522 -856 1778 -856 
Q 2344 -856 2625 -561 
Q 2906 -266 2906 331 
L 2906 616 
Q 2728 306 2450 153 
Q 2172 0 1784 0 
Q 1141 0 747 490 
Q 353 981 353 1791 
Q 353 2603 747 3093 
Q 1141 3584 1784 3584 
Q 2172 3584 2450 3431 
Q 2728 3278 2906 2969 
L 2906 3500 
L 3481 3500 
L 3481 434 
z
" transform="scale(0.015625)"/>
      </defs>
      <use xlink:href="#DejaVuSans-41"/>
      <use xlink:href="#DejaVuSans-76" transform="translate(62.533203 0)"/>
      <use xlink:href="#DejaVuSans-65" transform="translate(121.712891 0)"/>
      <use xlink:href="#DejaVuSans-72" transform="translate(183.236328 0)"/>
      <use xlink:href="#DejaVuSans-61" transform="translate(224.349609 0)"/>
      <use xlink:href="#DejaVuSans-67" transform="translate(285.628906 0)"/>
      <use xlink:href="#DejaVuSans-65" transform="translate(349.105469 0)"/>
      <use xlink:href="#DejaVuSans-20" transform="translate(410.628906 0)"/>
      <use xlink:href="#DejaVuSans-70" transform="translate(442.416016 0)"/>
      <use xlink:href="#DejaVuSans-72" transform="translate(505.892578 0)"/>
      <use xlink:href="#DejaVuSans-6f" transform="translate(544.755859 0)"/>
      <use xlink:href="#DejaVuSans-67" transform="translate(605.9375 0)"/>
      <use xlink:href="#DejaVuSans-72" transform="translate(669.414062 0)"/>
      <use xlink:href="#DejaVuSans-65" transform="translate(708.277344 0)"/>
      <use xlink:href="#DejaVuSans-73" transform="translate(769.800781 0)"/>
      <use xlink:href="#DejaVuSans-73" transform="translate(821.900391 0)"/>
     </g>
    </g>
    <g id="line2d_19">
     <path d="M 71.3 303.460313 
L 81.3 303.460313 
L 91.3 303.460313 
" style="fill: none; stroke: #ff7f0e; stroke-width: 2; stroke-linecap: square"/>
    </g>
    <g id="text_20">
     <!-- Success rate -->
     <g transform="translate(99.3 306.960313) scale(0.1 -0.1)">
      <defs>
       <path id="DejaVuSans-53" d="M 3425 4513 
L 3425 3897 
Q 3066 4069 2747 4153 
Q 2428 4238 2131 4238 
Q 1616 4238 1336 4038 
Q 1056 3838 1056 3469 
Q 1056 3159 1242 3001 
Q 1428 2844 1947 2747 
L 2328 2669 
Q 3034 2534 3370 2195 
Q 3706 1856 3706 1288 
Q 3706 609 3251 259 
Q 2797 -91 1919 -91 
Q 1588 -91 1214 -16 
Q 841 59 441 206 
L 441 856 
Q 825 641 1194 531 
Q 1563 422 1919 422 
Q 2459 422 2753 634 
Q 3047 847 3047 1241 
Q 3047 1584 2836 1778 
Q 2625 1972 2144 2069 
L 1759 2144 
Q 1053 2284 737 2584 
Q 422 2884 422 3419 
Q 422 4038 858 4394 
Q 1294 4750 2059 4750 
Q 2388 4750 2728 4690 
Q 3069 4631 3425 4513 
z
" transform="scale(0.015625)"/>
       <path id="DejaVuSans-63" d="M 3122 3366 
L 3122 2828 
Q 2878 2963 2633 3030 
Q 2388 3097 2138 3097 
Q 1578 3097 1268 2742 
Q 959 2388 959 1747 
Q 959 1106 1268 751 
Q 1578 397 2138 397 
Q 2388 397 2633 464 
Q 2878 531 3122 666 
L 3122 134 
Q 2881 22 2623 -34 
Q 2366 -91 2075 -91 
Q 1284 -91 818 406 
Q 353 903 353 1747 
Q 353 2603 823 3093 
Q 1294 3584 2113 3584 
Q 2378 3584 2631 3529 
Q 2884 3475 3122 3366 
z
" transform="scale(0.015625)"/>
      </defs>
      <use xlink:href="#DejaVuSans-53"/>
      <use xlink:href="#DejaVuSans-75" transform="translate(63.476562 0)"/>
      <use xlink:href="#DejaVuSans-63" transform="translate(126.855469 0)"/>
      <use xlink:href="#DejaVuSans-63" transform="translate(181.835938 0)"/>
      <use xlink:href="#DejaVuSans-65" transform="translate(236.816406 0)"/>
      <use xlink:href="#DejaVuSans-73" transform="translate(298.339844 0)"/>
      <use xlink:href="#DejaVuSans-73" transform="translate(350.439453 0)"/>
      <use xlink:href="#DejaVuSans-20" transform="translate(402.539062 0)"/>
      <use xlink:href="#DejaVuSans-72" transform="translate(434.326172 0)"/>
      <use xlink:href="#DejaVuSans-61" transform="translate(475.439453 0)"/>
      <use xlink:href="#DejaVuSans-74" transform="translate(536.71875 0)"/>
      <use xlink:href="#DejaVuSans-65" transform="translate(575.927734 0)"/>
     </g>
    </g>
   </g>
  </g>
 </g>
 <defs>
  <clipPath id="p9d2173f4c6">
   <rect x="62.3" y="26.88" width="502.9" height="291.16"/>
  </clipPath>
 </defs>
</svg>
